<svg width="1440" height="806" viewBox="0 0 1440 806" fill="none" xmlns="http://www.w3.org/2000/svg">
<rect width="1440" height="806" fill="#0A0231"/>
<g opacity="0.5" clip-path="url(#clip0_678_18293)">
<rect width="1440" height="900" fill="#0A0231"/>
<g opacity="0.9" filter="url(#filter0_f_678_18293)">
<circle cx="1144" cy="133" r="424" fill="#4532A4"/>
</g>
<g opacity="0.9" filter="url(#filter1_f_678_18293)">
<circle cx="88" cy="476" r="424" fill="#5C3BA0"/>
</g>
<g opacity="0.9" filter="url(#filter2_f_678_18293)">
<circle cx="742" cy="603" r="297" fill="#7A3BA0"/>
</g>
<g opacity="0.9" filter="url(#filter3_f_678_18293)">
<circle cx="512" cy="52" r="424" fill="#7E57EC"/>
</g>
<g filter="url(#filter4_f_678_18293)">
<circle cx="1291" cy="843" r="339" fill="#2D58C8"/>
</g>
<g filter="url(#filter5_f_678_18293)">
<circle cx="-164" cy="391" r="339" fill="#2D58C8"/>
</g>
<circle opacity="0.1" cx="1052.5" cy="-65.5" r="515.5" fill="url(#paint0_linear_678_18293)"/>
<circle opacity="0.1" cx="884.5" cy="69.5" r="745.5" fill="url(#paint1_linear_678_18293)"/>
<circle opacity="0.1" cx="630.5" cy="250.5" r="745.5" fill="url(#paint2_linear_678_18293)"/>
<g clip-path="url(#clip1_678_18293)">
<g opacity="0.3">
<path d="M932.36 901.063C932.303 901.058 932.25 901.034 932.208 900.996C932.166 900.958 932.138 900.907 932.128 900.851L918.921 780.858C918.909 780.811 918.91 780.761 918.924 780.714C918.939 780.668 918.967 780.626 919.004 780.594C919.04 780.55 919.091 780.518 919.147 780.505C919.203 780.493 919.262 780.499 919.314 780.523L956.641 828.88C956.687 828.949 956.705 829.031 956.694 829.113L932.621 900.778C932.625 900.815 932.621 900.851 932.609 900.886C932.598 900.921 932.579 900.952 932.554 900.979C932.53 901.006 932.5 901.027 932.466 901.042C932.433 901.056 932.396 901.063 932.36 901.063ZM919.388 781.649L932.426 899.66L956.084 829.212L919.388 781.649Z" fill="#DDC2FF"/>
<path d="M932.36 901.063C932.301 901.095 932.234 901.111 932.166 901.107L857.118 849.705C857.097 849.678 857.082 849.646 857.074 849.613C857.067 849.579 857.066 849.545 857.073 849.511C857.055 849.487 857.042 849.458 857.035 849.428C857.028 849.398 857.027 849.367 857.033 849.337L918.867 780.707C918.89 780.687 918.919 780.674 918.949 780.667C918.979 780.66 919.011 780.66 919.041 780.667C919.073 780.662 919.107 780.665 919.137 780.676C919.168 780.686 919.196 780.705 919.218 780.729C919.238 780.753 919.252 780.781 919.259 780.811C919.266 780.841 919.266 780.873 919.258 780.903L932.474 900.935C932.472 900.981 932.459 901.026 932.436 901.067C932.414 901.107 932.382 901.142 932.343 901.168L932.36 901.063ZM857.631 849.363L931.984 900.312L918.854 781.363L857.631 849.363Z" fill="#DDC2FF"/>
<path d="M1015.9 779.749C1015.85 779.78 1015.79 779.794 1015.73 779.789C1015.7 779.761 1015.68 779.727 1015.67 779.689C1015.66 779.652 1015.67 779.613 1015.68 779.576L1013.63 672.671C1013.61 672.62 1013.61 672.564 1013.63 672.513C1013.65 672.462 1013.68 672.418 1013.73 672.388C1013.77 672.359 1013.83 672.346 1013.88 672.351C1013.94 672.357 1013.99 672.38 1014.02 672.418L1103.36 746.35C1103.39 746.382 1103.4 746.419 1103.41 746.46C1103.42 746.5 1103.42 746.542 1103.41 746.583C1103.4 746.625 1103.38 746.665 1103.35 746.699C1103.33 746.733 1103.29 746.762 1103.25 746.782L1015.97 779.775L1015.9 779.749ZM1014.02 673.093L1016.09 779.136L1102.64 746.433L1014.02 673.093Z" fill="#DDC2FF"/>
<path d="M1103.18 746.737C1103.13 746.741 1103.08 746.731 1103.04 746.709C1102.99 746.687 1102.96 746.654 1102.93 746.612L1054.42 656.922C1054.38 656.863 1054.37 656.795 1054.37 656.728C1054.38 656.697 1054.4 656.668 1054.42 656.645C1054.44 656.622 1054.47 656.605 1054.5 656.595C1054.56 656.564 1054.63 656.548 1054.7 656.551L1116.11 686.724C1116.15 686.757 1116.18 686.804 1116.19 686.857C1116.2 686.91 1116.2 686.965 1116.17 687.014L1103.28 746.532C1103.27 746.61 1103.24 746.684 1103.18 746.737ZM1055.21 657.371L1103.02 745.774L1115.77 687.108L1055.21 657.371Z" fill="#DDC2FF"/>
<path d="M1103.18 746.737C1103.12 746.775 1103.06 746.791 1102.99 746.782L1013.61 672.82C1013.58 672.788 1013.56 672.751 1013.55 672.71C1013.54 672.67 1013.54 672.627 1013.55 672.587C1013.56 672.542 1013.58 672.5 1013.6 672.465C1013.63 672.429 1013.67 672.403 1013.71 672.388L1054.64 656.564C1054.7 656.548 1054.77 656.555 1054.83 656.582C1054.89 656.61 1054.93 656.657 1054.96 656.715L1103.44 746.352C1103.47 746.399 1103.48 746.456 1103.47 746.512C1103.46 746.567 1103.43 746.617 1103.39 746.65L1103.18 746.737ZM1014.24 672.634L1102.37 745.496L1054.57 657.132L1014.24 672.634Z" fill="#DDC2FF"/>
<path d="M1116.1 687.235C1116.08 687.253 1116.05 687.266 1116.02 687.273C1115.99 687.28 1115.96 687.281 1115.93 687.275C1115.9 687.247 1115.88 687.212 1115.87 687.175C1115.86 687.137 1115.87 687.098 1115.88 687.061L1117.05 590.435C1117.05 590.369 1117.08 590.307 1117.12 590.26C1117.17 590.212 1117.23 590.182 1117.29 590.174C1117.33 590.171 1117.38 590.18 1117.41 590.201C1117.45 590.221 1117.48 590.252 1117.5 590.29L1181.27 662.023C1181.3 662.053 1181.32 662.09 1181.33 662.129C1181.34 662.168 1181.34 662.21 1181.33 662.25C1181.32 662.289 1181.3 662.327 1181.28 662.358C1181.25 662.39 1181.22 662.414 1181.18 662.431L1116.1 687.235ZM1117.57 591.029L1116.31 686.616L1180.69 662.074L1117.57 591.029Z" fill="#DDC2FF"/>
<path d="M1181.18 662.431C1181.13 662.462 1181.08 662.474 1181.02 662.466C1180.98 662.435 1180.95 662.388 1180.93 662.334C1180.92 662.28 1180.93 662.224 1180.96 662.176L1208.45 554.663C1208.46 554.6 1208.49 554.542 1208.54 554.501C1208.57 554.463 1208.61 554.437 1208.66 554.426C1208.71 554.415 1208.76 554.419 1208.81 554.438L1249.9 576.843C1249.92 576.871 1249.94 576.902 1249.94 576.935C1249.95 576.968 1249.95 577.003 1249.95 577.037C1249.95 577.071 1249.95 577.108 1249.94 577.142C1249.93 577.176 1249.92 577.208 1249.89 577.233L1181.29 662.303C1181.27 662.357 1181.23 662.402 1181.18 662.431ZM1208.8 555.012L1181.65 661.181L1249.35 577.174L1208.8 555.012Z" fill="#DDC2FF"/>
<path d="M1181.18 662.431C1181.13 662.441 1181.09 662.439 1181.04 662.423C1181 662.408 1180.96 662.38 1180.93 662.344L1117.08 590.571C1117.03 590.502 1117.01 590.419 1117.02 590.338C1117.04 590.298 1117.06 590.26 1117.08 590.229C1117.11 590.198 1117.15 590.174 1117.19 590.158L1208.47 554.393C1208.49 554.373 1208.52 554.359 1208.55 554.352C1208.58 554.345 1208.61 554.346 1208.64 554.353C1208.68 554.363 1208.7 554.38 1208.73 554.403C1208.75 554.426 1208.77 554.455 1208.78 554.486C1208.81 554.531 1208.82 554.587 1208.81 554.641L1181.3 662.178C1181.3 662.223 1181.27 662.264 1181.24 662.297C1181.21 662.329 1181.17 662.352 1181.12 662.362L1181.18 662.431ZM1117.76 590.516L1181.01 661.694L1208.28 555.069L1117.76 590.516Z" fill="#DDC2FF"/>
<path d="M1249.78 577.298C1249.72 577.313 1249.66 577.305 1249.6 577.277C1249.55 577.248 1249.51 577.201 1249.48 577.143L1220.18 489.252C1220.17 489.209 1220.17 489.164 1220.17 489.12C1220.18 489.076 1220.2 489.034 1220.22 488.998C1220.24 488.971 1220.26 488.948 1220.29 488.93C1220.31 488.911 1220.34 488.898 1220.37 488.891C1220.4 488.884 1220.44 488.883 1220.47 488.889C1220.5 488.894 1220.53 488.905 1220.55 488.922L1299.45 561.309C1299.5 561.384 1299.52 561.472 1299.51 561.56C1299.5 561.606 1299.48 561.647 1299.45 561.68C1299.41 561.712 1299.37 561.735 1299.33 561.745L1249.8 577.173L1249.78 577.298ZM1220.98 490.069L1249.9 576.823L1298.85 561.528L1220.98 490.069Z" fill="#DDC2FF"/>
<path d="M1249.78 577.299C1249.73 577.328 1249.67 577.342 1249.61 577.339L1208.51 554.852C1208.48 554.819 1208.45 554.775 1208.44 554.727C1208.43 554.678 1208.43 554.627 1208.45 554.581L1220.17 489.112C1220.18 489.072 1220.19 489.033 1220.22 488.999C1220.24 488.965 1220.27 488.937 1220.31 488.917C1220.38 488.87 1220.46 488.851 1220.54 488.864C1220.57 488.909 1220.58 488.965 1220.58 489.019L1249.88 576.91C1249.89 576.959 1249.9 577.013 1249.88 577.063C1249.87 577.114 1249.84 577.159 1249.8 577.193L1249.78 577.299ZM1208.83 554.535L1249.3 576.594L1220.5 490.219L1208.83 554.535Z" fill="#DDC2FF"/>
<path d="M1299.36 561.799C1299.31 561.801 1299.26 561.785 1299.22 561.753C1299.17 561.721 1299.15 561.676 1299.14 561.626L1272.44 442.01C1272.41 441.951 1272.4 441.884 1272.4 441.816C1272.46 441.782 1272.53 441.767 1272.59 441.772C1272.67 441.775 1272.75 441.799 1272.81 441.844L1326.42 492.936C1326.45 492.972 1326.48 493.016 1326.49 493.064C1326.5 493.111 1326.5 493.161 1326.48 493.208L1299.57 561.731C1299.51 561.777 1299.43 561.802 1299.36 561.799ZM1273 442.658L1299.33 560.703L1325.91 493.095L1273 442.658Z" fill="#DDC2FF"/>
<path d="M1299.36 561.799C1299.32 561.808 1299.28 561.808 1299.24 561.799C1299.21 561.79 1299.17 561.772 1299.14 561.746L1220.26 489.418C1220.24 489.391 1220.22 489.359 1220.22 489.326C1220.21 489.292 1220.21 489.258 1220.21 489.224C1220.21 489.224 1220.19 489.108 1220.29 489.042L1272.45 441.866C1272.51 441.832 1272.58 441.816 1272.64 441.821C1272.7 441.816 1272.75 441.827 1272.8 441.853C1272.84 441.879 1272.88 441.918 1272.9 441.966C1272.92 441.981 1272.93 442 1272.93 442.021C1272.94 442.041 1272.93 442.062 1272.93 442.082L1299.61 561.64C1299.62 561.692 1299.61 561.745 1299.59 561.794C1299.57 561.842 1299.53 561.883 1299.49 561.912L1299.36 561.799ZM1220.79 489.153L1298.89 560.844L1272.49 442.469L1220.79 489.153Z" fill="#DDC2FF"/>
<path d="M1367.59 451.969C1367.55 451.976 1367.5 451.971 1367.46 451.955C1367.42 451.939 1367.38 451.912 1367.35 451.878C1367.32 451.843 1367.3 451.802 1367.3 451.757C1367.29 451.713 1367.29 451.668 1367.31 451.626L1413.68 323.612C1413.71 323.562 1413.77 323.527 1413.83 323.513C1413.89 323.499 1413.95 323.508 1414.01 323.537C1414.05 323.554 1414.09 323.582 1414.12 323.618C1414.15 323.654 1414.17 323.697 1414.18 323.743L1439.25 397.549C1439.26 397.598 1439.26 397.651 1439.25 397.7C1439.24 397.75 1439.21 397.795 1439.17 397.832L1367.69 451.966L1367.59 451.969ZM1413.89 324.461L1368.06 451.004L1438.71 397.49L1413.89 324.461Z" fill="#DDC2FF"/>
<path d="M1439.05 397.839L1438.94 397.866C1438.89 397.848 1438.85 397.82 1438.82 397.784C1438.79 397.748 1438.77 397.706 1438.77 397.66L1424.42 295.776C1424.42 295.72 1424.43 295.664 1424.46 295.617C1424.49 295.57 1424.53 295.534 1424.59 295.514C1424.64 295.488 1424.71 295.486 1424.77 295.507C1424.82 295.528 1424.87 295.57 1424.9 295.626L1473.29 366.353C1473.33 366.403 1473.34 366.463 1473.34 366.524C1473.33 366.585 1473.31 366.642 1473.26 366.685L1439.18 397.769L1439.05 397.839ZM1425.06 296.709L1439.19 397.094L1472.77 366.473L1425.06 296.709Z" fill="#DDC2FF"/>
<path d="M1439.05 397.839C1438.99 397.848 1438.93 397.835 1438.88 397.802C1438.82 397.77 1438.78 397.719 1438.77 397.66L1413.69 323.854C1413.67 323.833 1413.66 323.807 1413.66 323.781C1413.65 323.754 1413.65 323.726 1413.66 323.699L1424.39 295.741C1424.4 295.697 1424.42 295.656 1424.45 295.621C1424.48 295.586 1424.51 295.559 1424.55 295.542C1424.61 295.517 1424.67 295.514 1424.73 295.535C1424.79 295.556 1424.84 295.599 1424.86 295.654L1424.87 295.673L1439.2 397.519C1439.21 397.58 1439.2 397.643 1439.17 397.695C1439.13 397.747 1439.08 397.786 1439.02 397.805L1439.05 397.839ZM1414.17 323.704L1438.38 395.014L1424.55 296.685L1414.17 323.704Z" fill="#DDC2FF"/>
<path d="M1473.16 366.751C1473.11 366.758 1473.06 366.752 1473.01 366.734C1472.96 366.717 1472.92 366.687 1472.89 366.649L1424.44 295.771C1424.41 295.715 1424.4 295.651 1424.41 295.589C1424.43 295.527 1424.46 295.471 1424.51 295.43L1469.8 261.513C1469.83 261.482 1469.87 261.461 1469.91 261.452C1469.95 261.442 1469.99 261.445 1470.03 261.459C1470.06 261.488 1470.08 261.522 1470.09 261.559C1470.1 261.597 1470.09 261.636 1470.08 261.673L1473.35 366.504C1473.34 366.556 1473.33 366.606 1473.3 366.649C1473.27 366.692 1473.22 366.726 1473.18 366.746L1473.16 366.751ZM1425.07 295.73L1472.83 365.664L1469.8 262.207L1425.07 295.73Z" fill="#DDC2FF"/>
<path d="M1003.19 922.632C1003.15 922.658 1003.1 922.669 1003.05 922.663C1003.01 922.628 1002.99 922.584 1002.98 922.536C1002.97 922.488 1002.97 922.438 1002.99 922.392L1015.68 779.432C1015.69 779.38 1015.71 779.332 1015.75 779.295C1015.78 779.257 1015.83 779.232 1015.88 779.223C1015.93 779.209 1015.99 779.214 1016.04 779.236C1016.09 779.258 1016.13 779.296 1016.15 779.344L1066.23 854.562C1066.27 854.597 1066.3 854.644 1066.31 854.696C1066.32 854.748 1066.32 854.803 1066.3 854.852L1003.34 922.596C1003.32 922.615 1003.3 922.629 1003.27 922.635C1003.24 922.641 1003.21 922.64 1003.19 922.632ZM1016.02 780.171L1003.55 921.732L1065.74 854.673L1016.02 780.171Z" fill="#DDC2FF"/>
<path d="M1003.18 922.632C1003.13 922.646 1003.08 922.641 1003.03 922.619C1002.98 922.597 1002.94 922.559 1002.91 922.511L956.122 829.203C956.1 829.151 956.095 829.094 956.109 829.039C956.122 828.985 956.153 828.936 956.196 828.9L1015.63 779.281C1015.68 779.253 1015.73 779.241 1015.78 779.245C1015.84 779.232 1015.89 779.236 1015.94 779.258C1015.99 779.28 1016.03 779.318 1016.06 779.367C1016.08 779.39 1016.09 779.419 1016.1 779.449C1016.1 779.479 1016.1 779.511 1016.1 779.541L1003.34 922.596C1003.29 922.625 1003.24 922.638 1003.18 922.632ZM956.686 829.257L1002.99 921.596L1015.48 780.132L956.686 829.257Z" fill="#DDC2FF"/>
<path d="M1066 854.982C1065.95 855.009 1065.9 855.022 1065.84 855.017C1065.79 854.983 1065.76 854.933 1065.75 854.876C1065.73 854.818 1065.74 854.758 1065.77 854.707L1102.95 746.463C1102.99 746.418 1103.04 746.387 1103.1 746.374C1103.15 746.361 1103.21 746.367 1103.27 746.392C1103.32 746.406 1103.37 746.438 1103.4 746.482C1103.43 746.527 1103.45 746.581 1103.44 746.636L1104.35 781.43C1104.37 781.459 1104.38 781.493 1104.38 781.527L1066.26 854.963C1066.22 854.991 1066.18 855.008 1066.13 855.011C1066.08 855.014 1066.04 855.004 1066 854.982ZM1102.91 747.861L1067.27 851.63L1103.79 781.275L1102.91 747.861Z" fill="#DDC2FF"/>
<path d="M1066 854.981C1065.95 854.984 1065.9 854.977 1065.86 854.958C1065.82 854.94 1065.78 854.911 1065.75 854.875L1015.65 779.643C1015.63 779.613 1015.61 779.578 1015.61 779.541C1015.6 779.505 1015.6 779.467 1015.6 779.43C1015.61 779.395 1015.63 779.363 1015.66 779.336C1015.68 779.309 1015.72 779.288 1015.75 779.274L1103 746.29C1103.02 746.27 1103.05 746.256 1103.08 746.249C1103.11 746.242 1103.14 746.242 1103.17 746.25C1103.22 746.265 1103.27 746.294 1103.3 746.333C1103.33 746.372 1103.36 746.42 1103.37 746.471C1103.37 746.471 1103.39 746.587 1103.4 746.606L1066.22 854.788C1066.21 854.842 1066.19 854.891 1066.15 854.927C1066.1 854.963 1066.05 854.982 1066 854.981ZM1016.22 779.616L1065.85 854.178L1102.7 746.848L1016.22 779.616Z" fill="#DDC2FF"/>
<path d="M1104.1 781.551C1104.05 781.582 1103.99 781.594 1103.94 781.586C1103.91 781.55 1103.89 781.506 1103.88 781.458C1103.87 781.411 1103.87 781.362 1103.88 781.315L1115.89 687.038C1115.89 686.999 1115.9 686.96 1115.92 686.924C1115.93 686.888 1115.96 686.857 1115.99 686.832C1116.02 686.799 1116.07 686.776 1116.12 686.765C1116.16 686.754 1116.21 686.756 1116.26 686.77C1116.3 686.832 1116.32 686.909 1116.31 686.983L1133.32 755.702C1133.33 755.746 1133.33 755.793 1133.31 755.837C1133.3 755.88 1133.27 755.918 1133.23 755.946L1104.21 781.505L1104.1 781.551ZM1116.13 688.35L1104.36 780.673L1132.79 755.638L1116.13 688.35Z" fill="#DDC2FF"/>
<path d="M1104.1 781.551C1104.03 781.55 1103.97 781.526 1103.93 781.483C1103.89 781.44 1103.86 781.381 1103.86 781.319L1102.95 746.526L1115.83 686.95C1115.85 686.895 1115.88 686.846 1115.92 686.807C1115.96 686.774 1116 686.75 1116.05 686.739C1116.1 686.728 1116.15 686.73 1116.19 686.745C1116.23 686.778 1116.26 686.822 1116.27 686.87C1116.28 686.919 1116.27 686.97 1116.25 687.016L1104.25 781.313C1104.24 781.362 1104.23 781.41 1104.2 781.452C1104.18 781.494 1104.14 781.528 1104.1 781.551ZM1115.09 692.607L1103.39 746.568L1104.21 778.056L1115.09 692.607Z" fill="#DDC2FF"/>
<path d="M1133.13 755.968C1133.11 755.991 1133.07 756.008 1133.03 756.016C1133 756.025 1132.96 756.025 1132.92 756.017C1132.88 755.983 1132.85 755.936 1132.84 755.883C1132.83 755.83 1132.83 755.775 1132.86 755.726L1180.83 662.246C1180.86 662.203 1180.91 662.173 1180.96 662.161C1181.02 662.149 1181.07 662.155 1181.12 662.179L1234.32 681.748C1234.37 681.766 1234.4 681.794 1234.43 681.83C1234.46 681.865 1234.48 681.908 1234.49 681.954C1234.49 681.998 1234.48 682.041 1234.46 682.08C1234.44 682.12 1234.42 682.155 1234.38 682.183L1133.12 756.156L1133.13 755.968ZM1181.25 662.495L1133.78 754.963L1233.91 681.803L1181.25 662.495Z" fill="#DDC2FF"/>
<path d="M1133.14 755.968L1133.04 755.99C1132.99 755.982 1132.94 755.958 1132.9 755.923C1132.87 755.888 1132.84 755.843 1132.83 755.793L1115.81 687.056C1115.81 687.026 1115.8 686.994 1115.8 686.963C1115.81 686.931 1115.82 686.901 1115.83 686.873C1115.84 686.845 1115.86 686.82 1115.89 686.8C1115.91 686.779 1115.94 686.764 1115.97 686.755L1181.03 661.955C1181.09 661.941 1181.15 661.944 1181.2 661.964C1181.26 661.984 1181.31 662.02 1181.34 662.068C1181.39 662.136 1181.4 662.219 1181.39 662.3L1133.33 755.842C1133.31 755.879 1133.29 755.911 1133.25 755.933C1133.22 755.955 1133.18 755.967 1133.14 755.968ZM1116.34 687.138L1133.14 755.028L1180.6 662.564L1116.34 687.138Z" fill="#DDC2FF"/>
<path d="M1234.38 682C1234.33 682.028 1234.28 682.04 1234.23 682.036C1234.19 682.003 1234.16 681.959 1234.15 681.91C1234.14 681.861 1234.14 681.81 1234.16 681.764L1249.55 577.067C1249.61 577.022 1249.7 577.003 1249.78 577.014C1249.86 577.034 1249.94 577.081 1249.99 577.148L1282.59 634.707C1282.62 634.752 1282.64 634.806 1282.63 634.861C1282.62 634.915 1282.6 634.965 1282.56 635.001L1234.52 681.969C1234.5 681.984 1234.48 681.995 1234.45 682C1234.43 682.006 1234.4 682.006 1234.38 682ZM1249.86 577.811L1234.74 681.062L1282.09 634.558L1249.86 577.811Z" fill="#DDC2FF"/>
<path d="M1234.38 682C1234.34 682.026 1234.29 682.037 1234.25 682.031L1181.04 662.462C1180.97 662.427 1180.91 662.368 1180.88 662.295C1180.87 662.257 1180.87 662.218 1180.88 662.18C1180.89 662.143 1180.91 662.108 1180.94 662.079L1249.55 577.005C1249.57 576.978 1249.59 576.955 1249.62 576.937C1249.64 576.919 1249.67 576.906 1249.7 576.899C1249.73 576.892 1249.76 576.891 1249.79 576.896C1249.83 576.901 1249.86 576.912 1249.88 576.929C1249.92 576.965 1249.94 577.009 1249.95 577.057C1249.96 577.104 1249.96 577.154 1249.94 577.2L1234.56 681.878C1234.56 681.878 1234.58 681.994 1234.44 682.069L1234.38 682ZM1181.52 662.066L1234.13 681.426L1249.35 577.99L1181.52 662.066Z" fill="#DDC2FF"/>
<path d="M1282.34 634.867C1282.3 634.894 1282.24 634.907 1282.19 634.902C1282.15 634.865 1282.12 634.818 1282.11 634.766C1282.1 634.715 1282.1 634.661 1282.12 634.611L1299.1 561.553C1299.11 561.507 1299.14 561.466 1299.17 561.433C1299.2 561.401 1299.25 561.378 1299.29 561.367C1299.34 561.357 1299.38 561.359 1299.43 561.374C1299.47 561.388 1299.51 561.415 1299.54 561.451L1324.27 588.136C1324.32 588.172 1324.35 588.222 1324.36 588.278C1324.37 588.335 1324.37 588.393 1324.34 588.446L1282.62 634.722C1282.59 634.775 1282.56 634.818 1282.51 634.845C1282.46 634.871 1282.4 634.879 1282.34 634.867ZM1299.4 562.075L1282.76 633.751L1323.67 588.273L1299.4 562.075Z" fill="#DDC2FF"/>
<path d="M1282.34 634.866C1282.29 634.872 1282.24 634.864 1282.2 634.841C1282.15 634.819 1282.11 634.784 1282.09 634.741L1249.49 577.182C1249.47 577.152 1249.45 577.117 1249.44 577.08C1249.44 577.044 1249.44 577.006 1249.44 576.969C1249.47 576.948 1249.5 576.933 1249.53 576.925C1249.57 576.918 1249.6 576.917 1249.64 576.924L1299.17 561.496C1299.19 561.477 1299.21 561.464 1299.24 561.457C1299.27 561.451 1299.3 561.452 1299.32 561.46C1299.35 561.462 1299.38 561.471 1299.41 561.485C1299.44 561.5 1299.46 561.52 1299.48 561.544C1299.5 561.569 1299.51 561.597 1299.52 561.628C1299.53 561.658 1299.53 561.689 1299.52 561.72L1282.56 634.755C1282.54 634.79 1282.5 634.819 1282.47 634.838C1282.43 634.858 1282.39 634.867 1282.34 634.866ZM1250.05 577.217L1282.19 633.942L1298.92 561.94L1250.05 577.217Z" fill="#DDC2FF"/>
<path d="M1324.12 588.518C1324.07 588.541 1324.01 588.553 1323.96 588.554C1323.93 588.522 1323.9 588.481 1323.89 588.436C1323.88 588.391 1323.89 588.345 1323.9 588.302L1326.09 493.074C1326.09 493.015 1326.11 492.958 1326.14 492.912C1326.18 492.866 1326.24 492.835 1326.29 492.823C1326.35 492.817 1326.41 492.829 1326.46 492.858C1326.51 492.886 1326.55 492.93 1326.57 492.983L1352.31 567.269C1352.33 567.316 1352.33 567.368 1352.32 567.416C1352.3 567.464 1352.27 567.505 1352.23 567.533L1324.21 588.496L1324.12 588.518ZM1326.45 494.379L1324.31 587.76L1351.76 567.191L1326.45 494.379Z" fill="#DDC2FF"/>
<path d="M1324.12 588.518C1324.07 588.529 1324.02 588.526 1323.98 588.511C1323.94 588.495 1323.9 588.468 1323.87 588.431L1299.12 561.731C1299.09 561.699 1299.06 561.658 1299.05 561.614C1299.04 561.569 1299.05 561.522 1299.06 561.479L1325.97 493.019C1325.97 492.961 1325.99 492.906 1326.03 492.863C1326.07 492.82 1326.13 492.793 1326.18 492.787C1326.23 492.78 1326.27 492.785 1326.32 492.8C1326.36 492.815 1326.4 492.84 1326.43 492.874C1326.48 492.941 1326.49 493.025 1326.48 493.106L1324.3 588.271C1324.31 588.319 1324.29 588.367 1324.26 588.406C1324.24 588.446 1324.2 588.475 1324.15 588.49L1324.12 588.518ZM1299.56 561.508L1323.78 587.658L1325.91 494.46L1299.56 561.508Z" fill="#DDC2FF"/>
<path d="M1352.13 567.536C1352.08 567.567 1352.03 567.579 1351.97 567.571C1351.94 567.537 1351.91 567.493 1351.9 567.445C1351.89 567.397 1351.89 567.346 1351.91 567.3L1367.27 451.654C1367.27 451.654 1367.25 451.537 1367.39 451.463C1367.44 451.434 1367.5 451.424 1367.56 451.433C1367.62 451.442 1367.67 451.47 1367.71 451.513L1415.09 504.48C1415.14 504.517 1415.18 504.57 1415.19 504.631C1415.21 504.691 1415.2 504.755 1415.17 504.81L1352.24 567.49L1352.13 567.536ZM1367.7 452.289L1352.43 566.611L1414.61 504.673L1367.7 452.289Z" fill="#DDC2FF"/>
<path d="M1352.13 567.536C1352.07 567.544 1352.01 567.532 1351.97 567.502C1351.92 567.472 1351.88 567.426 1351.86 567.372L1326.05 493.103C1326.03 493.059 1326.03 493.01 1326.04 492.963C1326.05 492.916 1326.08 492.874 1326.11 492.844L1367.35 451.636C1367.4 451.604 1367.47 451.594 1367.53 451.606C1367.59 451.619 1367.64 451.655 1367.67 451.705C1367.71 451.733 1367.73 451.771 1367.74 451.813C1367.75 451.855 1367.74 451.899 1367.73 451.938L1352.29 567.274C1352.3 567.33 1352.29 567.387 1352.26 567.435C1352.23 567.483 1352.18 567.519 1352.13 567.536ZM1326.52 493.098L1351.95 566.23L1367.19 452.429L1326.52 493.098Z" fill="#DDC2FF"/>
<path d="M1414.97 504.917C1414.95 504.936 1414.92 504.949 1414.89 504.956C1414.86 504.963 1414.83 504.963 1414.8 504.957C1414.76 504.924 1414.74 504.883 1414.73 504.839C1414.72 504.795 1414.72 504.748 1414.74 504.705L1438.82 397.627C1438.82 397.587 1438.83 397.549 1438.85 397.515C1438.87 397.482 1438.9 397.454 1438.94 397.436C1438.97 397.41 1439.01 397.391 1439.05 397.381C1439.09 397.372 1439.13 397.373 1439.17 397.383L1520.41 446.326C1520.44 446.357 1520.46 446.394 1520.47 446.435C1520.48 446.476 1520.48 446.519 1520.47 446.559C1520.46 446.6 1520.45 446.64 1520.43 446.677C1520.41 446.713 1520.38 446.744 1520.35 446.769L1415.05 504.899L1414.97 504.917ZM1439.17 397.976L1415.29 504.19L1519.74 446.52L1439.17 397.976Z" fill="#DDC2FF"/>
<path d="M1414.97 504.917C1414.93 504.925 1414.88 504.923 1414.84 504.912C1414.8 504.9 1414.76 504.879 1414.73 504.85L1367.35 451.882C1367.32 451.855 1367.31 451.824 1367.3 451.79C1367.29 451.757 1367.29 451.722 1367.3 451.688C1367.31 451.655 1367.32 451.622 1367.34 451.593C1367.35 451.565 1367.38 451.54 1367.41 451.521L1438.87 397.392C1438.9 397.358 1438.94 397.336 1438.99 397.327C1439.04 397.318 1439.09 397.323 1439.13 397.341C1439.17 397.36 1439.21 397.391 1439.24 397.43C1439.26 397.47 1439.28 397.516 1439.27 397.564L1415.17 504.728C1415.16 504.773 1415.14 504.814 1415.11 504.847C1415.08 504.88 1415.03 504.903 1414.99 504.913L1414.97 504.917ZM1367.91 451.753L1414.81 504.239L1438.64 398.279L1367.91 451.753Z" fill="#DDC2FF"/>
<path d="M1520.29 446.763C1520.24 446.793 1520.19 446.806 1520.13 446.798L1438.88 397.797C1438.84 397.74 1438.83 397.671 1438.83 397.603C1438.83 397.524 1438.86 397.445 1438.91 397.383L1472.88 366.364C1472.91 366.338 1472.95 366.32 1472.98 366.312C1473.02 366.303 1473.06 366.304 1473.1 366.316C1473.15 366.316 1473.19 366.332 1473.23 366.359C1473.27 366.386 1473.3 366.425 1473.32 366.469L1520.44 446.442C1520.47 446.487 1520.49 446.542 1520.48 446.596C1520.47 446.65 1520.45 446.7 1520.4 446.736L1520.29 446.763ZM1439.41 397.552L1519.52 445.797L1473.03 366.903L1439.41 397.552Z" fill="#DDC2FF"/>
<path d="M1120.96 879.471C1120.94 879.487 1120.92 879.497 1120.9 879.503C1120.87 879.508 1120.85 879.508 1120.82 879.503C1120.8 879.474 1120.78 879.44 1120.77 879.402C1120.76 879.365 1120.76 879.326 1120.78 879.289L1103.89 781.373C1103.88 781.344 1103.88 781.314 1103.88 781.283C1103.88 781.253 1103.89 781.223 1103.91 781.197C1103.92 781.17 1103.94 781.147 1103.97 781.129C1103.99 781.111 1104.02 781.098 1104.05 781.092C1104.08 781.071 1104.11 781.056 1104.14 781.048C1104.18 781.041 1104.21 781.04 1104.25 781.047L1190.08 834.976C1190.1 835.004 1190.12 835.039 1190.13 835.076C1190.14 835.113 1190.14 835.152 1190.13 835.189C1190.13 835.232 1190.12 835.274 1190.1 835.311C1190.08 835.349 1190.05 835.379 1190.01 835.399L1120.96 879.452L1120.96 879.471ZM1104.38 781.793L1121.1 878.828L1189.46 835.2L1104.38 781.793Z" fill="#DDC2FF"/>
<path d="M1120.96 879.471C1120.94 879.486 1120.92 879.497 1120.9 879.502C1120.87 879.508 1120.85 879.508 1120.82 879.502L1065.84 854.998C1065.78 854.97 1065.73 854.923 1065.71 854.865C1065.67 854.806 1065.66 854.738 1065.66 854.671L1103.79 781.274C1103.8 781.233 1103.82 781.194 1103.84 781.162C1103.87 781.13 1103.91 781.107 1103.95 781.094C1103.99 781.075 1104.04 781.07 1104.09 781.082C1104.14 781.093 1104.18 781.12 1104.21 781.157C1104.23 781.185 1104.25 781.216 1104.25 781.249C1104.26 781.283 1104.26 781.317 1104.25 781.351L1121.18 879.278C1121.18 879.322 1121.18 879.367 1121.16 879.407C1121.14 879.447 1121.11 879.482 1121.07 879.507L1120.96 879.471ZM1066.28 854.611L1120.6 878.881L1103.92 782.14L1066.28 854.611Z" fill="#DDC2FF"/>
<path d="M1190.02 835.438C1189.97 835.447 1189.92 835.442 1189.88 835.423C1189.84 835.404 1189.8 835.372 1189.77 835.332L1132.89 755.881C1132.86 755.822 1132.84 755.755 1132.85 755.687C1132.85 755.647 1132.87 755.608 1132.89 755.577C1132.92 755.546 1132.95 755.523 1132.99 755.512C1133.02 755.481 1133.06 755.46 1133.1 755.451C1133.14 755.441 1133.18 755.444 1133.22 755.458L1200.88 803.904C1200.92 803.937 1200.95 803.984 1200.96 804.037C1200.98 804.09 1200.97 804.145 1200.95 804.194L1190.17 835.219C1190.17 835.265 1190.15 835.31 1190.13 835.348C1190.1 835.386 1190.06 835.417 1190.02 835.438ZM1134.14 756.798L1189.88 834.654L1200.46 804.286L1134.14 756.798Z" fill="#DDC2FF"/>
<path d="M1190.02 835.438C1189.97 835.473 1189.91 835.488 1189.85 835.478L1103.92 781.591C1103.9 781.563 1103.88 781.528 1103.87 781.491C1103.86 781.453 1103.86 781.414 1103.87 781.377C1103.87 781.34 1103.87 781.302 1103.88 781.267C1103.9 781.232 1103.92 781.2 1103.95 781.176L1132.99 755.613C1133.02 755.573 1133.07 755.545 1133.12 755.533C1133.17 755.522 1133.22 755.528 1133.26 755.551C1133.26 755.551 1133.26 755.551 1133.29 755.667L1190.17 835.098C1190.2 835.146 1190.21 835.203 1190.21 835.26C1190.2 835.316 1190.18 835.37 1190.14 835.411L1190.02 835.438ZM1104.46 781.264L1189.03 834.319L1133.05 756.212L1104.46 781.264Z" fill="#DDC2FF"/>
<path d="M1200.78 804.437C1200.75 804.457 1200.72 804.471 1200.68 804.479C1200.65 804.486 1200.62 804.487 1200.58 804.481C1200.55 804.448 1200.52 804.404 1200.51 804.356C1200.5 804.307 1200.5 804.256 1200.52 804.21L1234.08 681.845C1234.08 681.845 1234.08 681.845 1234.05 681.728C1234.09 681.688 1234.13 681.66 1234.18 681.649C1234.23 681.637 1234.28 681.643 1234.33 681.666C1234.36 681.673 1234.39 681.686 1234.41 681.705C1234.44 681.723 1234.46 681.747 1234.47 681.775L1283.23 748.299C1283.26 748.358 1283.28 748.425 1283.27 748.493C1283.27 748.524 1283.25 748.553 1283.23 748.578C1283.22 748.604 1283.19 748.625 1283.16 748.64L1200.79 804.514L1200.78 804.437ZM1234.4 682.343L1201.14 803.619L1282.72 748.212L1234.4 682.343Z" fill="#DDC2FF"/>
<path d="M1200.78 804.437C1200.75 804.457 1200.72 804.471 1200.68 804.478C1200.65 804.486 1200.62 804.487 1200.58 804.481L1132.92 755.935C1132.9 755.907 1132.88 755.872 1132.87 755.835C1132.86 755.797 1132.86 755.758 1132.87 755.722C1132.88 755.68 1132.89 755.64 1132.91 755.604C1132.93 755.567 1132.96 755.536 1132.99 755.512L1234.24 681.544C1234.27 681.522 1234.3 681.506 1234.34 681.498C1234.37 681.489 1234.41 681.488 1234.45 681.495C1234.48 681.501 1234.51 681.514 1234.54 681.533C1234.56 681.552 1234.58 681.576 1234.6 681.604C1234.63 681.663 1234.65 681.73 1234.64 681.798L1201.06 804.23C1201.04 804.268 1201.02 804.302 1200.99 804.33C1200.96 804.358 1200.93 804.379 1200.89 804.391L1200.78 804.437ZM1133.49 755.724L1200.63 803.778L1233.94 682.368L1133.49 755.724Z" fill="#DDC2FF"/>
<path d="M1283.17 748.558L1283.03 748.589C1282.98 748.57 1282.95 748.538 1282.92 748.497C1282.89 748.456 1282.88 748.409 1282.87 748.36L1282.09 634.659C1282.09 634.659 1282.06 634.543 1282.17 634.477C1282.2 634.457 1282.22 634.443 1282.25 634.436C1282.28 634.429 1282.32 634.43 1282.35 634.437C1282.38 634.439 1282.41 634.447 1282.44 634.462C1282.46 634.477 1282.49 634.497 1282.51 634.522L1338.45 695.809C1338.49 695.86 1338.51 695.924 1338.51 695.989C1338.51 696.054 1338.48 696.116 1338.43 696.161L1283.29 748.551C1283.25 748.569 1283.2 748.572 1283.17 748.558ZM1282.58 635.262L1283.36 747.737L1337.92 695.91L1282.58 635.262Z" fill="#DDC2FF"/>
<path d="M1283.17 748.558C1283.12 748.569 1283.07 748.566 1283.03 748.551C1282.99 748.536 1282.95 748.508 1282.92 748.471L1234.14 681.913C1234.09 681.879 1234.06 681.829 1234.04 681.772C1234.03 681.715 1234.04 681.655 1234.07 681.603L1282.02 634.513C1282.04 634.493 1282.07 634.479 1282.1 634.472C1282.13 634.465 1282.16 634.465 1282.19 634.473C1282.24 634.474 1282.29 634.489 1282.32 634.516C1282.36 634.544 1282.39 634.582 1282.41 634.627C1282.44 634.672 1282.45 634.727 1282.45 634.782L1283.37 748.287C1283.37 748.34 1283.35 748.392 1283.32 748.435C1283.29 748.479 1283.25 748.512 1283.2 748.53L1283.17 748.558ZM1234.66 681.793L1282.87 747.544L1282.07 635.213L1234.66 681.793Z" fill="#DDC2FF"/>
<path d="M1338.33 696.164L1338.19 696.195C1338.15 696.18 1338.11 696.152 1338.08 696.114C1338.06 696.076 1338.04 696.031 1338.04 695.984L1323.81 588.363C1323.81 588.312 1323.82 588.26 1323.84 588.214C1323.86 588.168 1323.9 588.13 1323.94 588.105C1323.99 588.079 1324.04 588.068 1324.09 588.071C1324.14 588.075 1324.19 588.093 1324.23 588.125L1391.24 654.77C1391.28 654.832 1391.3 654.909 1391.29 654.983C1391.27 655.054 1391.24 655.119 1391.19 655.17L1338.42 696.122L1338.33 696.164ZM1324.4 588.963L1338.47 695.457L1390.7 654.933L1324.4 588.963Z" fill="#DDC2FF"/>
<path d="M1338.33 696.164C1338.29 696.174 1338.24 696.173 1338.2 696.161C1338.16 696.149 1338.12 696.127 1338.09 696.096L1282.14 634.79C1282.09 634.756 1282.06 634.706 1282.05 634.649C1282.03 634.591 1282.04 634.531 1282.07 634.48L1323.82 588.199C1323.85 588.166 1323.89 588.143 1323.94 588.133C1323.98 588.123 1324.03 588.125 1324.07 588.141C1324.11 588.152 1324.15 588.175 1324.18 588.208C1324.21 588.242 1324.23 588.283 1324.24 588.328L1338.45 695.973C1338.46 696.023 1338.45 696.073 1338.42 696.118C1338.4 696.163 1338.37 696.201 1338.32 696.226L1338.33 696.164ZM1282.67 634.608L1337.92 695.177L1323.88 588.837L1282.67 634.608Z" fill="#DDC2FF"/>
<path d="M1391.09 655.172C1391.04 655.174 1390.99 655.163 1390.95 655.14C1390.91 655.117 1390.88 655.083 1390.85 655.042L1351.85 567.376C1351.83 567.34 1351.82 567.3 1351.82 567.26C1351.79 567.124 1351.92 566.992 1352.05 567.004L1433.5 561.009C1433.54 561.008 1433.58 561.017 1433.62 561.036C1433.66 561.056 1433.7 561.084 1433.73 561.119C1433.76 561.149 1433.78 561.186 1433.79 561.228C1433.8 561.269 1433.79 561.312 1433.78 561.352L1391.34 654.951C1391.33 655.011 1391.3 655.065 1391.25 655.105C1391.2 655.145 1391.15 655.169 1391.09 655.172ZM1352.39 567.536L1391.06 654.26L1433.09 561.57L1352.39 567.536Z" fill="#DDC2FF"/>
<path d="M1391.09 655.172C1391.04 655.187 1391 655.188 1390.95 655.176C1390.91 655.164 1390.87 655.139 1390.85 655.105L1323.84 588.46C1323.81 588.429 1323.8 588.395 1323.79 588.358C1323.78 588.321 1323.78 588.283 1323.79 588.246C1323.79 588.212 1323.8 588.178 1323.82 588.149C1323.84 588.12 1323.86 588.096 1323.89 588.08L1351.89 567.121C1351.91 567.102 1351.94 567.088 1351.97 567.081C1352 567.074 1352.03 567.074 1352.06 567.081C1352.11 567.085 1352.16 567.101 1352.19 567.128C1352.23 567.155 1352.26 567.192 1352.28 567.235L1391.28 654.843C1391.3 654.897 1391.31 654.958 1391.29 655.015C1391.27 655.071 1391.23 655.12 1391.18 655.15L1391.09 655.172ZM1324.39 588.311L1390.26 653.811L1351.92 567.706L1324.39 588.311Z" fill="#DDC2FF"/>
<path d="M1433.56 561.565C1433.5 561.574 1433.44 561.563 1433.39 561.534C1433.34 561.505 1433.3 561.459 1433.28 561.405L1414.67 504.762C1414.66 504.714 1414.66 504.665 1414.67 504.619C1414.69 504.573 1414.72 504.531 1414.75 504.498C1414.78 504.465 1414.82 504.442 1414.86 504.432C1414.9 504.423 1414.94 504.427 1414.98 504.445L1507.57 541.711C1507.61 541.741 1507.63 541.782 1507.64 541.827C1507.65 541.873 1507.65 541.92 1507.63 541.963C1507.63 542.014 1507.61 542.063 1507.58 542.103C1507.55 542.143 1507.5 542.172 1507.45 542.186L1433.48 561.563L1433.56 561.565ZM1415.32 505.102L1433.68 561.027L1506.69 541.891L1415.32 505.102Z" fill="#DDC2FF"/>
<path d="M1433.56 561.565L1352.11 567.54C1352.06 567.553 1352 567.547 1351.96 567.524C1351.91 567.501 1351.87 567.462 1351.85 567.415C1351.83 567.365 1351.83 567.311 1351.84 567.258C1351.85 567.205 1351.87 567.156 1351.91 567.117L1414.74 504.522C1414.78 504.482 1414.85 504.462 1414.91 504.467C1414.97 504.472 1415.03 504.501 1415.07 504.547C1415.1 504.593 1415.11 504.648 1415.1 504.702L1433.68 561.273C1433.72 561.335 1433.74 561.411 1433.73 561.486C1433.71 561.509 1433.68 561.528 1433.65 561.542C1433.62 561.555 1433.59 561.563 1433.56 561.565ZM1352.72 567.012L1433.19 561.099L1414.8 505.16L1352.72 567.012Z" fill="#DDC2FF"/>
<path d="M1507.54 542.188L1507.4 542.219L1414.83 504.91C1414.78 504.895 1414.74 504.867 1414.72 504.829C1414.69 504.791 1414.67 504.746 1414.67 504.699C1414.67 504.652 1414.68 504.604 1414.7 504.562C1414.73 504.521 1414.76 504.487 1414.81 504.465L1520.1 446.315L1520.3 446.271C1520.36 446.288 1520.41 446.325 1520.44 446.378C1520.48 446.43 1520.49 446.492 1520.49 446.554L1507.66 541.997C1507.66 542.037 1507.64 542.076 1507.62 542.109C1507.6 542.143 1507.57 542.17 1507.54 542.188ZM1415.5 504.653L1507.28 541.594L1519.91 446.91L1415.5 504.653Z" fill="#DDC2FF"/>
<path d="M1248.56 878.649L1208.76 885.177C1208.71 885.208 1208.65 885.222 1208.59 885.217C1208.56 885.158 1208.54 885.09 1208.55 885.023L1200.59 804.236C1200.58 804.183 1200.6 804.131 1200.62 804.086C1200.65 804.04 1200.69 804.003 1200.73 803.978C1200.78 803.965 1200.84 803.967 1200.89 803.984C1200.94 804.001 1200.99 804.033 1201.02 804.075L1248.8 878.35C1248.82 878.382 1248.84 878.42 1248.85 878.46C1248.86 878.501 1248.86 878.543 1248.85 878.583C1248.82 878.625 1248.77 878.655 1248.72 878.667C1248.66 878.679 1248.61 878.673 1248.56 878.649ZM1208.96 884.684L1248.12 878.26L1201.11 805.177L1208.96 884.684Z" fill="#DDC2FF"/>
<path d="M1208.77 885.215C1208.71 885.23 1208.65 885.222 1208.59 885.194C1208.54 885.165 1208.5 885.118 1208.47 885.06L1189.74 835.278C1189.71 835.232 1189.7 835.177 1189.7 835.123L1200.47 804.098C1200.49 804.059 1200.52 804.025 1200.55 803.999C1200.58 803.974 1200.62 803.957 1200.67 803.952C1200.71 803.94 1200.76 803.94 1200.8 803.951C1200.85 803.962 1200.89 803.984 1200.93 804.015C1200.95 804.043 1200.97 804.078 1200.98 804.115C1200.99 804.153 1200.99 804.192 1200.97 804.228L1209.02 884.935C1209.02 884.965 1209.02 884.996 1209.02 885.026C1209.01 885.056 1209 885.084 1208.98 885.109C1208.97 885.134 1208.94 885.156 1208.92 885.172C1208.89 885.187 1208.86 885.198 1208.83 885.202L1208.77 885.215ZM1190.23 835.186L1208.27 883.127L1200.65 805.322L1190.23 835.186Z" fill="#DDC2FF"/>
<path d="M1248.56 878.649C1248.51 878.68 1248.46 878.693 1248.4 878.685C1248.36 878.647 1248.33 878.596 1248.32 878.541C1248.31 878.486 1248.31 878.428 1248.33 878.375L1282.93 748.226C1282.95 748.167 1282.98 748.117 1283.04 748.084C1283.09 748.05 1283.15 748.034 1283.21 748.038C1283.26 748.047 1283.31 748.07 1283.34 748.105C1283.38 748.14 1283.41 748.185 1283.42 748.235L1306.17 805.562C1306.18 805.603 1306.18 805.645 1306.17 805.686C1306.16 805.727 1306.14 805.765 1306.12 805.798L1248.71 878.614C1248.67 878.645 1248.61 878.657 1248.56 878.649ZM1283.16 749.05L1249.03 877.216L1305.55 805.478L1283.16 749.05Z" fill="#DDC2FF"/>
<path d="M1248.56 878.649C1248.51 878.659 1248.46 878.654 1248.42 878.635C1248.37 878.616 1248.34 878.584 1248.31 878.543L1200.55 804.326C1200.51 804.261 1200.51 804.185 1200.53 804.115C1200.55 804.045 1200.6 803.986 1200.67 803.952L1282.98 748.111C1283.05 748.063 1283.13 748.044 1283.21 748.057C1283.28 748.066 1283.33 748.097 1283.37 748.144C1283.41 748.191 1283.44 748.251 1283.44 748.313C1283.44 748.313 1283.44 748.313 1283.46 748.41L1248.77 878.6C1248.74 878.625 1248.71 878.642 1248.67 878.651C1248.63 878.659 1248.6 878.659 1248.56 878.649ZM1201.09 804.202L1248.4 877.788L1282.7 748.848L1201.09 804.202Z" fill="#DDC2FF"/>
<path d="M1305.92 805.905L1305.76 805.94C1305.72 805.901 1305.69 805.851 1305.68 805.796C1305.67 805.741 1305.67 805.683 1305.69 805.63L1338.1 695.889C1338.12 695.833 1338.16 695.785 1338.2 695.752C1338.25 695.718 1338.31 695.702 1338.37 695.706C1338.42 695.708 1338.48 695.731 1338.52 695.771C1338.56 695.812 1338.58 695.866 1338.58 695.923L1342.99 757.41C1343.02 757.456 1343.04 757.511 1343.03 757.565L1306.2 805.819C1306.18 805.867 1306.13 805.902 1306.08 805.918C1306.02 805.934 1305.97 805.93 1305.92 805.905ZM1338.17 697.26L1306.54 804.456L1342.49 757.361L1338.17 697.26Z" fill="#DDC2FF"/>
<path d="M1305.92 805.905C1305.86 805.905 1305.81 805.889 1305.77 805.859C1305.73 805.829 1305.69 805.786 1305.67 805.736L1282.88 748.398C1282.87 748.351 1282.86 748.3 1282.87 748.251C1282.88 748.202 1282.91 748.157 1282.94 748.12L1338.05 695.758C1338.09 695.729 1338.13 695.708 1338.17 695.698C1338.22 695.688 1338.26 695.689 1338.3 695.7C1338.35 695.699 1338.4 695.714 1338.43 695.743C1338.47 695.772 1338.49 695.813 1338.5 695.858C1338.53 695.883 1338.55 695.914 1338.56 695.949C1338.56 695.983 1338.56 696.019 1338.55 696.052L1306.17 805.746C1306.15 805.799 1306.12 805.844 1306.07 805.874C1306.03 805.903 1305.97 805.914 1305.92 805.905ZM1283.41 748.38L1305.83 804.905L1337.77 696.741L1283.41 748.38Z" fill="#DDC2FF"/>
<path d="M1342.74 757.651C1342.7 757.659 1342.66 757.657 1342.62 757.645C1342.57 757.634 1342.54 757.612 1342.5 757.583C1342.47 757.547 1342.45 757.504 1342.44 757.456C1342.43 757.408 1342.43 757.359 1342.44 757.312L1390.82 654.805C1390.83 654.773 1390.85 654.745 1390.88 654.721C1390.91 654.697 1390.94 654.68 1390.97 654.668C1391 654.65 1391.02 654.636 1391.05 654.63C1391.08 654.623 1391.11 654.622 1391.15 654.628L1439.57 712.232C1439.6 712.26 1439.62 712.295 1439.62 712.332C1439.63 712.37 1439.63 712.409 1439.62 712.445C1439.62 712.483 1439.6 712.518 1439.58 712.549C1439.56 712.579 1439.53 712.603 1439.5 712.617L1342.69 757.519L1342.74 757.651ZM1391.13 655.366L1343.22 756.888L1439.18 712.466L1391.13 655.366Z" fill="#DDC2FF"/>
<path d="M1342.74 757.651L1342.65 757.673C1342.59 757.66 1342.54 757.63 1342.51 757.586C1342.47 757.543 1342.45 757.489 1342.45 757.433L1338.04 695.965C1338.03 695.923 1338.03 695.879 1338.05 695.839C1338.07 695.799 1338.09 695.765 1338.13 695.74L1390.85 654.777L1391.01 654.742C1391.03 654.723 1391.06 654.71 1391.09 654.703C1391.12 654.696 1391.15 654.696 1391.18 654.702C1391.2 654.732 1391.22 654.767 1391.23 654.803C1391.24 654.84 1391.24 654.878 1391.23 654.915C1391.23 654.947 1391.23 654.98 1391.22 655.01C1391.21 655.041 1391.19 655.069 1391.17 655.092L1342.84 757.527C1342.82 757.577 1342.79 757.62 1342.74 757.651ZM1338.53 696.037L1342.85 756.443L1390.37 655.805L1338.53 696.037Z" fill="#DDC2FF"/>
<path d="M1439.55 712.748C1439.49 712.738 1439.45 712.711 1439.41 712.671C1439.38 712.631 1439.36 712.58 1439.35 712.527L1433.3 561.381C1433.28 561.338 1433.27 561.292 1433.26 561.245C1433.28 561.211 1433.31 561.182 1433.34 561.158C1433.37 561.135 1433.4 561.118 1433.44 561.11C1433.47 561.101 1433.51 561.101 1433.55 561.109C1433.59 561.117 1433.62 561.133 1433.65 561.156L1478.54 627.098C1478.57 627.127 1478.59 627.165 1478.6 627.206C1478.61 627.248 1478.61 627.291 1478.59 627.331L1439.82 712.584C1439.81 712.615 1439.8 712.644 1439.79 712.669C1439.77 712.695 1439.75 712.716 1439.72 712.732C1439.7 712.748 1439.67 712.757 1439.64 712.76C1439.61 712.763 1439.57 712.759 1439.55 712.748ZM1433.81 562.182L1439.7 711.449L1477.97 627.207L1433.81 562.182Z" fill="#DDC2FF"/>
<path d="M1439.55 712.748C1439.5 712.758 1439.46 712.757 1439.42 712.745C1439.38 712.733 1439.34 712.711 1439.31 712.681L1390.88 655.077C1390.84 655.048 1390.82 655.008 1390.81 654.961C1390.79 654.915 1390.8 654.867 1390.82 654.825L1433.26 561.226C1433.28 561.192 1433.3 561.162 1433.33 561.139C1433.36 561.116 1433.4 561.099 1433.43 561.091C1433.47 561.082 1433.51 561.082 1433.55 561.09C1433.58 561.098 1433.62 561.114 1433.65 561.137C1433.67 561.164 1433.69 561.195 1433.69 561.229C1433.7 561.262 1433.7 561.297 1433.69 561.331L1439.73 712.462C1439.73 712.512 1439.71 712.561 1439.69 712.603C1439.66 712.646 1439.62 712.679 1439.58 712.7L1439.55 712.748ZM1391.34 654.869L1439.23 711.801L1433.32 562.375L1391.34 654.869Z" fill="#DDC2FF"/>
<path d="M1478.32 627.494C1478.28 627.502 1478.23 627.495 1478.19 627.476C1478.15 627.456 1478.12 627.424 1478.09 627.384L1433.33 561.454C1433.31 561.426 1433.29 561.391 1433.28 561.354C1433.27 561.317 1433.27 561.278 1433.28 561.241C1433.29 561.201 1433.31 561.165 1433.34 561.137C1433.37 561.108 1433.41 561.089 1433.45 561.08L1507.43 541.703C1507.47 541.672 1507.53 541.66 1507.58 541.668C1507.63 541.704 1507.67 541.758 1507.68 541.818C1507.69 541.879 1507.69 541.942 1507.66 541.997L1478.59 627.311C1478.58 627.341 1478.57 627.37 1478.56 627.395C1478.54 627.421 1478.52 627.443 1478.5 627.46C1478.47 627.478 1478.44 627.489 1478.41 627.495C1478.38 627.501 1478.35 627.501 1478.32 627.494ZM1433.93 561.461L1478.22 626.783L1507.13 542.382L1433.93 561.461Z" fill="#DDC2FF"/>
<path d="M1323.79 886.317L1323.64 886.353C1323.59 886.347 1323.54 886.327 1323.51 886.296C1323.47 886.264 1323.44 886.222 1323.43 886.175L1305.57 805.739C1305.56 805.692 1305.56 805.641 1305.58 805.596C1305.6 805.551 1305.64 805.514 1305.68 805.49C1305.71 805.457 1305.75 805.434 1305.79 805.425C1305.83 805.415 1305.87 805.419 1305.91 805.437L1363.01 832.925C1363.04 832.939 1363.07 832.96 1363.1 832.986C1363.12 833.012 1363.14 833.043 1363.15 833.077C1363.16 833.115 1363.16 833.154 1363.15 833.192C1363.14 833.23 1363.12 833.264 1363.1 833.293L1323.87 886.218C1323.85 886.258 1323.83 886.293 1323.79 886.317ZM1306.21 806.103L1323.87 885.504L1362.59 833.245L1306.21 806.103Z" fill="#DDC2FF"/>
<path d="M1323.79 886.317L1248.4 878.685C1248.36 878.67 1248.33 878.646 1248.3 878.613C1248.27 878.581 1248.25 878.541 1248.24 878.499C1248.23 878.456 1248.23 878.412 1248.24 878.37C1248.25 878.328 1248.27 878.289 1248.31 878.258L1305.64 805.499C1305.65 805.487 1305.67 805.479 1305.69 805.475C1305.7 805.471 1305.72 805.472 1305.74 805.477C1305.79 805.443 1305.84 805.427 1305.9 805.433C1305.96 805.439 1306.01 805.465 1306.05 805.507C1306.08 805.56 1306.1 805.621 1306.09 805.681L1323.94 886.06C1323.95 886.097 1323.95 886.136 1323.94 886.174C1323.93 886.212 1323.91 886.247 1323.88 886.276C1323.86 886.299 1323.83 886.314 1323.79 886.317ZM1249 878.243L1323.51 885.791L1305.81 806.216L1249 878.243Z" fill="#DDC2FF"/>
<path d="M1363.02 833.393L1362.92 833.415C1362.87 833.406 1362.83 833.384 1362.8 833.352C1362.77 833.319 1362.74 833.278 1362.73 833.233L1342.47 757.51C1342.44 757.462 1342.44 757.406 1342.45 757.354C1342.47 757.301 1342.5 757.256 1342.54 757.227C1342.58 757.185 1342.63 757.155 1342.68 757.143C1342.73 757.131 1342.79 757.137 1342.84 757.161L1389.24 797.052C1389.29 797.089 1389.33 797.143 1389.34 797.203C1389.36 797.264 1389.35 797.327 1389.32 797.382L1363.18 833.232C1363.15 833.305 1363.09 833.363 1363.02 833.393ZM1343.23 758.09L1363.17 832.562L1388.86 797.325L1343.23 758.09Z" fill="#DDC2FF"/>
<path d="M1363.02 833.393C1362.98 833.418 1362.93 833.429 1362.88 833.424L1305.78 805.936C1305.75 805.885 1305.73 805.823 1305.74 805.762C1305.72 805.734 1305.71 805.703 1305.7 805.67C1305.69 805.636 1305.69 805.601 1305.7 805.568L1342.47 757.183C1342.5 757.15 1342.55 757.127 1342.59 757.117C1342.63 757.106 1342.68 757.109 1342.72 757.125C1342.77 757.131 1342.81 757.15 1342.84 757.179C1342.87 757.208 1342.89 757.246 1342.9 757.288L1363.2 833.025C1363.21 833.073 1363.21 833.122 1363.19 833.168C1363.18 833.214 1363.15 833.256 1363.11 833.289L1363.02 833.393ZM1306.26 805.603L1362.6 832.734L1342.58 757.995L1306.26 805.603Z" fill="#DDC2FF"/>
<path d="M1389.14 797.485C1389.1 797.494 1389.06 797.494 1389.02 797.485C1388.99 797.476 1388.95 797.458 1388.92 797.432C1388.88 797.396 1388.85 797.345 1388.83 797.289C1388.82 797.233 1388.83 797.174 1388.85 797.122L1439.22 712.394C1439.23 712.348 1439.26 712.306 1439.3 712.273C1439.33 712.24 1439.37 712.217 1439.42 712.205C1439.47 712.172 1439.54 712.158 1439.6 712.165L1478.55 734.735C1478.57 734.763 1478.59 734.798 1478.6 734.835C1478.61 734.873 1478.61 734.912 1478.59 734.948C1478.6 734.99 1478.59 735.032 1478.57 735.069C1478.55 735.106 1478.52 735.137 1478.48 735.158L1389.24 797.462L1389.14 797.485ZM1439.58 712.802L1389.89 796.395L1478 735.043L1439.58 712.802Z" fill="#DDC2FF"/>
<path d="M1389.14 797.484C1389.1 797.494 1389.06 797.494 1389.02 797.485C1388.99 797.476 1388.95 797.458 1388.92 797.432L1342.51 757.54C1342.49 757.509 1342.47 757.471 1342.46 757.43C1342.45 757.39 1342.45 757.348 1342.46 757.308C1342.47 757.267 1342.48 757.228 1342.51 757.194C1342.53 757.161 1342.56 757.133 1342.6 757.113L1439.43 712.225C1439.47 712.222 1439.52 712.229 1439.56 712.248C1439.61 712.266 1439.64 712.295 1439.67 712.331C1439.71 712.363 1439.73 712.404 1439.74 712.448C1439.75 712.493 1439.75 712.54 1439.73 712.583L1389.31 797.444C1389.29 797.464 1389.26 797.478 1389.23 797.485C1389.2 797.492 1389.17 797.492 1389.14 797.484ZM1343.22 757.4L1389.11 796.838L1438.95 712.987L1343.22 757.4Z" fill="#DDC2FF"/>
<path d="M1478.54 735.328C1478.49 735.358 1478.43 735.372 1478.36 735.368L1439.38 712.725C1439.35 712.709 1439.33 712.687 1439.31 712.661C1439.29 712.636 1439.28 712.607 1439.27 712.576C1439.26 712.546 1439.26 712.514 1439.27 712.483C1439.27 712.452 1439.29 712.422 1439.3 712.396L1478.07 627.185C1478.08 627.139 1478.11 627.097 1478.14 627.064C1478.18 627.031 1478.22 627.007 1478.27 626.996C1478.33 626.983 1478.38 626.989 1478.43 627.015C1478.49 627.041 1478.53 627.084 1478.55 627.137C1478.57 627.173 1478.57 627.213 1478.57 627.253L1478.79 735.068C1478.78 735.112 1478.77 735.155 1478.75 735.193C1478.72 735.23 1478.69 735.261 1478.65 735.282L1478.54 735.328ZM1439.82 712.44L1478.23 734.705L1478.03 628.439L1439.82 712.44Z" fill="#DDC2FF"/>
<path d="M1399.91 940.166L1399.79 940.193C1399.74 940.179 1399.7 940.15 1399.67 940.109C1399.64 940.069 1399.62 940.019 1399.62 939.968L1388.95 797.302C1388.95 797.255 1388.96 797.208 1388.98 797.166C1389.01 797.124 1389.04 797.089 1389.08 797.065C1389.12 797.041 1389.17 797.029 1389.22 797.029C1389.26 797.03 1389.31 797.044 1389.35 797.069L1487.85 846.89C1487.93 846.933 1487.98 847.001 1488 847.081C1488 847.156 1487.97 847.227 1487.92 847.283L1400.03 940.077C1400.02 940.1 1400 940.12 1399.98 940.135C1399.96 940.151 1399.94 940.161 1399.91 940.166ZM1389.38 797.754L1400.07 939.335L1487.24 847.216L1389.38 797.754Z" fill="#DDC2FF"/>
<path d="M1399.91 940.167C1399.85 940.176 1399.79 940.163 1399.73 940.13C1399.68 940.097 1399.64 940.047 1399.62 939.987L1362.73 833.233C1362.69 833.171 1362.67 833.095 1362.69 833.02L1388.93 797.186L1389.06 797.054C1389.11 797.033 1389.16 797.03 1389.22 797.044C1389.27 797.058 1389.31 797.089 1389.34 797.132C1389.38 797.19 1389.39 797.258 1389.39 797.325L1400.15 939.887C1400.15 939.955 1400.13 940.021 1400.08 940.073C1400.04 940.124 1399.98 940.158 1399.91 940.167ZM1363.26 833.195L1399.52 938.013L1388.97 797.992L1363.26 833.195Z" fill="#DDC2FF"/>
<path d="M1487.7 847.394C1487.66 847.422 1487.6 847.435 1487.55 847.43L1389 797.516C1388.98 797.488 1388.96 797.453 1388.95 797.416C1388.94 797.378 1388.94 797.339 1388.95 797.303C1388.95 797.258 1388.96 797.214 1388.98 797.174C1389 797.135 1389.03 797.1 1389.06 797.073L1478.43 734.863C1478.46 734.841 1478.5 734.825 1478.53 734.817C1478.57 734.809 1478.61 734.808 1478.65 734.814C1478.68 734.821 1478.71 734.836 1478.74 734.858C1478.77 734.881 1478.79 734.91 1478.8 734.943L1478.82 735.04L1488.02 847.159C1488.02 847.203 1488.01 847.246 1487.99 847.285C1487.97 847.325 1487.94 847.36 1487.91 847.389L1487.7 847.394ZM1389.6 797.378L1487.39 846.814L1478.24 735.641L1389.6 797.378Z" fill="#DDC2FF"/>
</g>
<path opacity="0.2" d="M919.465 782.61C920.472 782.379 921.101 781.377 920.871 780.37C920.64 779.364 919.637 778.736 918.63 778.966C917.624 779.197 916.994 780.2 917.225 781.206C917.456 782.212 918.459 782.84 919.465 782.61Z" fill="#DDC2FF"/>
<path opacity="0.3" d="M1014.38 675.314C1015.9 674.966 1016.85 673.451 1016.5 671.931C1016.16 670.411 1014.64 669.462 1013.12 669.81C1011.6 670.159 1010.65 671.673 1011 673.193C1011.35 674.713 1012.86 675.663 1014.38 675.314Z" fill="#DDC2FF"/>
<path opacity="0.3" d="M1054.04 653.967C1053.62 654.014 1053.22 654.149 1052.85 654.363C1052.49 654.578 1052.17 654.868 1051.93 655.213C1051.68 655.558 1051.51 655.951 1051.43 656.366C1051.35 656.782 1051.35 657.21 1051.45 657.622C1051.54 658.035 1051.72 658.423 1051.98 658.761C1052.23 659.099 1052.56 659.379 1052.93 659.583C1053.3 659.786 1053.71 659.91 1054.13 659.944C1054.55 659.978 1054.98 659.923 1055.38 659.781C1056.07 659.535 1056.65 659.043 1057.01 658.397C1057.36 657.752 1057.47 656.998 1057.3 656.28C1057.14 655.562 1056.71 654.93 1056.11 654.504C1055.51 654.077 1054.78 653.886 1054.04 653.967Z" fill="#DDC2FF"/>
<path opacity="0.1" d="M1116.48 586.628C1115.74 586.794 1115.06 587.177 1114.54 587.728C1114.01 588.279 1113.66 588.974 1113.53 589.724C1113.4 590.473 1113.5 591.244 1113.81 591.939C1114.12 592.633 1114.63 593.22 1115.28 593.624C1115.92 594.028 1116.67 594.231 1117.43 594.208C1118.19 594.185 1118.93 593.937 1119.55 593.494C1120.17 593.052 1120.64 592.436 1120.91 591.724C1121.18 591.012 1121.23 590.236 1121.06 589.496C1120.83 588.509 1120.22 587.652 1119.36 587.114C1118.5 586.577 1117.47 586.402 1116.48 586.628Z" fill="#DDC2FF"/>
<path opacity="0.2" d="M1209.48 558.363C1211.54 557.892 1212.82 555.844 1212.35 553.789C1211.88 551.734 1209.83 550.45 1207.78 550.921C1205.72 551.392 1204.44 553.44 1204.91 555.495C1205.38 557.55 1207.43 558.834 1209.48 558.363Z" fill="#DDC2FF"/>
<path opacity="0.2" d="M1180.07 657.586C1179.15 657.791 1178.32 658.264 1177.67 658.944C1177.03 659.624 1176.6 660.48 1176.44 661.405C1176.28 662.329 1176.4 663.279 1176.78 664.135C1177.17 664.991 1177.79 665.714 1178.59 666.212C1179.38 666.71 1180.31 666.961 1181.25 666.933C1182.18 666.904 1183.09 666.598 1183.86 666.053C1184.62 665.509 1185.2 664.749 1185.54 663.872C1185.87 662.995 1185.93 662.039 1185.72 661.126C1185.43 659.91 1184.68 658.856 1183.62 658.193C1182.56 657.53 1181.29 657.312 1180.07 657.586Z" fill="#DDC2FF"/>
<path opacity="0.1" d="M1273.34 445.047C1273.96 444.907 1274.51 444.587 1274.95 444.13C1275.38 443.672 1275.66 443.097 1275.77 442.476C1275.87 441.856 1275.79 441.218 1275.54 440.644C1275.28 440.07 1274.86 439.585 1274.32 439.251C1273.79 438.917 1273.17 438.748 1272.54 438.766C1271.91 438.785 1271.3 438.989 1270.79 439.354C1270.27 439.718 1269.88 440.227 1269.66 440.815C1269.43 441.403 1269.39 442.044 1269.53 442.657C1269.72 443.48 1270.22 444.193 1270.94 444.642C1271.66 445.09 1272.52 445.236 1273.34 445.047Z" fill="#DDC2FF"/>
<path opacity="0.3" d="M1222.91 488.587C1222.8 488.092 1222.54 487.64 1222.18 487.289C1221.81 486.938 1221.35 486.704 1220.85 486.615C1220.35 486.527 1219.83 486.589 1219.37 486.793C1218.9 486.997 1218.51 487.334 1218.24 487.762C1217.96 488.189 1217.82 488.688 1217.83 489.196C1217.84 489.703 1218.01 490.195 1218.3 490.611C1218.59 491.027 1218.99 491.347 1219.47 491.531C1219.94 491.715 1220.46 491.755 1220.95 491.645C1221.28 491.575 1221.6 491.44 1221.87 491.248C1222.15 491.055 1222.39 490.809 1222.57 490.525C1222.75 490.24 1222.87 489.922 1222.93 489.59C1222.99 489.257 1222.98 488.916 1222.91 488.587Z" fill="#DDC2FF"/>
<path opacity="0.4" d="M1366.84 448.694C1366.24 448.831 1365.7 449.142 1365.28 449.588C1364.85 450.034 1364.57 450.595 1364.47 451.2C1364.37 451.805 1364.45 452.427 1364.7 452.987C1364.95 453.546 1365.36 454.019 1365.88 454.345C1366.4 454.671 1367.01 454.835 1367.62 454.817C1368.24 454.8 1368.83 454.6 1369.33 454.245C1369.83 453.889 1370.21 453.394 1370.43 452.82C1370.65 452.247 1370.69 451.622 1370.56 451.024C1370.37 450.222 1369.88 449.526 1369.18 449.089C1368.48 448.652 1367.64 448.51 1366.84 448.694Z" fill="#DDC2FF"/>
<path opacity="0.2" d="M1423.7 291.454C1423.14 291.582 1422.61 291.82 1422.14 292.152C1421.67 292.485 1421.28 292.907 1420.97 293.394C1420.67 293.88 1420.47 294.422 1420.37 294.988C1420.28 295.554 1420.3 296.132 1420.43 296.691C1420.69 297.812 1421.39 298.783 1422.36 299.393C1423.34 300.002 1424.52 300.2 1425.64 299.943C1426.77 299.685 1427.74 298.994 1428.35 298.02C1428.97 297.046 1429.17 295.868 1428.92 294.745C1428.8 294.185 1428.56 293.656 1428.23 293.187C1427.9 292.719 1427.48 292.32 1426.99 292.014C1426.51 291.709 1425.97 291.502 1425.4 291.406C1424.84 291.309 1424.26 291.326 1423.7 291.454Z" fill="#DDC2FF"/>
<path opacity="0.1" d="M1414.72 327.27C1416.69 326.818 1417.92 324.856 1417.47 322.886C1417.02 320.917 1415.06 319.686 1413.08 320.138C1411.11 320.589 1409.88 322.552 1410.33 324.521C1410.78 326.491 1412.75 327.721 1414.72 327.27Z" fill="#DDC2FF"/>
<path opacity="0.2" d="M1438.24 394.312C1437.59 394.461 1437 394.801 1436.54 395.288C1436.08 395.776 1435.77 396.388 1435.66 397.048C1435.55 397.708 1435.64 398.387 1435.91 398.997C1436.19 399.607 1436.64 400.121 1437.21 400.475C1437.78 400.829 1438.44 401.006 1439.11 400.985C1439.78 400.963 1440.42 400.743 1440.97 400.352C1441.51 399.962 1441.93 399.419 1442.16 398.792C1442.4 398.165 1442.44 397.483 1442.29 396.832C1442.19 396.4 1442.01 395.992 1441.75 395.631C1441.49 395.271 1441.17 394.964 1440.79 394.73C1440.42 394.496 1440 394.338 1439.56 394.267C1439.12 394.195 1438.67 394.21 1438.24 394.312Z" fill="#DDC2FF"/>
<path opacity="0.4" d="M1014.8 774.943C1013.9 775.149 1013.08 775.618 1012.44 776.291C1011.81 776.963 1011.39 777.808 1011.23 778.719C1011.08 779.63 1011.2 780.567 1011.58 781.41C1011.95 782.253 1012.57 782.965 1013.36 783.456C1014.14 783.947 1015.05 784.195 1015.98 784.168C1016.9 784.141 1017.8 783.841 1018.55 783.305C1019.3 782.77 1019.88 782.023 1020.21 781.159C1020.54 780.296 1020.61 779.354 1020.4 778.453C1020.12 777.245 1019.38 776.197 1018.33 775.539C1017.28 774.88 1016.01 774.666 1014.8 774.943Z" fill="#DDC2FF"/>
<path opacity="0.1" d="M1102.26 742.726C1101.51 742.897 1100.83 743.286 1100.31 743.844C1099.78 744.402 1099.43 745.103 1099.3 745.859C1099.17 746.615 1099.27 747.392 1099.59 748.092C1099.9 748.791 1100.42 749.382 1101.07 749.79C1101.72 750.197 1102.47 750.403 1103.24 750.38C1104.01 750.358 1104.75 750.109 1105.37 749.665C1106 749.22 1106.48 748.601 1106.75 747.884C1107.03 747.167 1107.08 746.386 1106.91 745.638C1106.66 744.649 1106.03 743.796 1105.17 743.253C1104.3 742.711 1103.26 742.522 1102.26 742.726Z" fill="#DDC2FF"/>
<path opacity="0.2" d="M1120.74 685.907C1120.52 684.98 1120.04 684.136 1119.35 683.483C1118.66 682.83 1117.78 682.397 1116.85 682.238C1115.91 682.08 1114.94 682.203 1114.07 682.593C1113.2 682.982 1112.47 683.62 1111.96 684.427C1111.46 685.233 1111.2 686.171 1111.23 687.122C1111.26 688.074 1111.57 688.995 1112.12 689.771C1112.67 690.547 1113.44 691.141 1114.33 691.48C1115.22 691.818 1116.19 691.885 1117.12 691.673C1118.36 691.388 1119.44 690.62 1120.12 689.539C1120.8 688.458 1121.02 687.151 1120.74 685.907Z" fill="#DDC2FF"/>
<path opacity="0.1" d="M1250.65 581.097C1251.46 580.913 1252.19 580.495 1252.75 579.897C1253.31 579.298 1253.69 578.545 1253.83 577.734C1253.96 576.922 1253.85 576.089 1253.52 575.339C1253.18 574.589 1252.62 573.956 1251.93 573.521C1251.23 573.085 1250.42 572.867 1249.59 572.893C1248.77 572.92 1247.97 573.189 1247.3 573.669C1246.64 574.148 1246.12 574.815 1245.83 575.585C1245.54 576.355 1245.49 577.194 1245.68 577.995C1245.8 578.526 1246.02 579.027 1246.34 579.471C1246.66 579.915 1247.06 580.291 1247.52 580.58C1247.98 580.868 1248.5 581.062 1249.03 581.151C1249.57 581.24 1250.12 581.221 1250.65 581.097Z" fill="#DDC2FF"/>
<path opacity="0.2" d="M1300.69 567.594C1301.88 567.323 1302.98 566.702 1303.82 565.811C1304.67 564.919 1305.23 563.797 1305.44 562.585C1305.64 561.374 1305.49 560.129 1304.99 559.008C1304.48 557.886 1303.66 556.939 1302.62 556.287C1301.58 555.634 1300.36 555.305 1299.14 555.342C1297.91 555.378 1296.72 555.779 1295.72 556.492C1294.72 557.206 1293.95 558.2 1293.51 559.35C1293.08 560.499 1293 561.751 1293.27 562.948C1293.64 564.544 1294.63 565.928 1296.02 566.798C1297.41 567.669 1299.09 567.955 1300.69 567.594Z" fill="#DDC2FF"/>
<path opacity="0.4" d="M1325.94 491.721C1325.6 491.804 1325.31 492.014 1325.13 492.307C1324.94 492.601 1324.88 492.955 1324.95 493.294C1325.03 493.628 1325.24 493.917 1325.54 494.098C1325.83 494.279 1326.18 494.337 1326.52 494.26C1326.69 494.222 1326.84 494.152 1326.98 494.054C1327.12 493.955 1327.24 493.831 1327.33 493.687C1327.42 493.543 1327.48 493.383 1327.51 493.216C1327.53 493.048 1327.53 492.877 1327.49 492.711C1327.41 492.376 1327.21 492.083 1326.92 491.898C1326.63 491.713 1326.28 491.649 1325.94 491.721Z" fill="#DDC2FF"/>
<path d="M1323.28 584.855C1322.6 585.01 1321.99 585.361 1321.51 585.865C1321.04 586.368 1320.72 587.001 1320.6 587.683C1320.49 588.366 1320.58 589.067 1320.86 589.699C1321.15 590.33 1321.61 590.863 1322.2 591.231C1322.78 591.599 1323.47 591.784 1324.16 591.764C1324.85 591.744 1325.52 591.519 1326.08 591.118C1326.65 590.717 1327.08 590.158 1327.33 589.511C1327.58 588.864 1327.62 588.159 1327.47 587.484C1327.26 586.58 1326.7 585.794 1325.92 585.301C1325.13 584.808 1324.18 584.648 1323.28 584.855Z" fill="#DDC2FF"/>
<path opacity="0.1" d="M1104.7 784.186C1105.47 784.01 1106.14 783.534 1106.56 782.864C1106.98 782.194 1107.12 781.384 1106.94 780.613C1106.77 779.842 1106.29 779.173 1105.62 778.753C1104.95 778.332 1104.14 778.196 1103.37 778.372C1102.6 778.549 1101.93 779.025 1101.51 779.695C1101.08 780.365 1100.95 781.175 1101.12 781.946C1101.3 782.717 1101.78 783.386 1102.45 783.806C1103.12 784.226 1103.93 784.363 1104.7 784.186Z" fill="#DDC2FF"/>
<path opacity="0.1" d="M1135.35 755.216C1135.25 754.761 1135.02 754.346 1134.68 754.024C1134.34 753.703 1133.92 753.488 1133.46 753.409C1133 753.329 1132.53 753.388 1132.1 753.578C1131.68 753.768 1131.32 754.08 1131.07 754.474C1130.82 754.869 1130.7 755.328 1130.71 755.794C1130.73 756.259 1130.88 756.71 1131.15 757.088C1131.42 757.467 1131.8 757.756 1132.24 757.919C1132.67 758.081 1133.15 758.111 1133.6 758.003C1134.2 757.86 1134.72 757.488 1135.05 756.967C1135.37 756.446 1135.48 755.817 1135.35 755.216Z" fill="#DDC2FF"/>
<path opacity="0.2" d="M1233.18 676.685C1232.18 676.916 1231.27 677.439 1230.56 678.188C1229.85 678.937 1229.38 679.88 1229.21 680.895C1229.04 681.911 1229.17 682.955 1229.59 683.895C1230.01 684.836 1230.7 685.629 1231.58 686.177C1232.45 686.724 1233.47 687 1234.5 686.97C1235.53 686.94 1236.53 686.606 1237.37 686.009C1238.21 685.412 1238.85 684.579 1239.22 683.616C1239.59 682.653 1239.66 681.603 1239.43 680.599C1239.12 679.252 1238.29 678.083 1237.12 677.35C1235.95 676.616 1234.53 676.377 1233.18 676.685Z" fill="#DDC2FF"/>
<path opacity="0.4" d="M1283.02 637.668C1284.71 637.282 1285.76 635.608 1285.37 633.927C1284.99 632.247 1283.31 631.197 1281.63 631.582C1279.95 631.967 1278.9 633.642 1279.28 635.322C1279.67 637.003 1281.34 638.053 1283.02 637.668Z" fill="#DDC2FF"/>
<path opacity="0.2" d="M1390.39 652.149C1389.84 652.272 1389.33 652.557 1388.94 652.968C1388.55 653.379 1388.29 653.898 1388.19 654.458C1388.09 655.017 1388.17 655.593 1388.4 656.112C1388.63 656.63 1389.01 657.068 1389.49 657.37C1389.97 657.672 1390.53 657.823 1391.1 657.806C1391.67 657.789 1392.22 657.603 1392.68 657.272C1393.14 656.941 1393.5 656.481 1393.7 655.949C1393.89 655.417 1393.93 654.838 1393.8 654.285C1393.72 653.921 1393.56 653.577 1393.35 653.273C1393.13 652.969 1392.86 652.71 1392.54 652.511C1392.22 652.313 1391.87 652.179 1391.5 652.117C1391.13 652.055 1390.76 652.066 1390.39 652.149Z" fill="#DDC2FF"/>
<path opacity="0.3" d="M1351.15 563.292C1350.36 563.474 1349.64 563.887 1349.08 564.479C1348.52 565.071 1348.15 565.815 1348.01 566.618C1347.88 567.421 1347.98 568.245 1348.32 568.988C1348.65 569.731 1349.19 570.358 1349.88 570.79C1350.57 571.223 1351.38 571.441 1352.19 571.417C1353.01 571.394 1353.79 571.129 1354.46 570.658C1355.12 570.186 1355.63 569.528 1355.92 568.767C1356.21 568.007 1356.27 567.177 1356.09 566.384C1355.84 565.32 1355.19 564.396 1354.26 563.816C1353.34 563.236 1352.22 563.048 1351.15 563.292Z" fill="#DDC2FF"/>
<path opacity="0.2" d="M1414.32 502.068C1413.79 502.185 1413.31 502.456 1412.93 502.847C1412.56 503.238 1412.31 503.732 1412.22 504.264C1412.13 504.797 1412.2 505.345 1412.42 505.838C1412.64 506.332 1413 506.748 1413.46 507.035C1413.92 507.322 1414.45 507.467 1414.99 507.45C1415.53 507.434 1416.05 507.257 1416.49 506.942C1416.93 506.627 1417.27 506.189 1417.46 505.683C1417.65 505.176 1417.68 504.625 1417.56 504.1C1417.4 503.4 1416.97 502.794 1416.36 502.413C1415.75 502.032 1415.02 501.908 1414.32 502.068Z" fill="#DDC2FF"/>
<path d="M1201.71 808.444C1204.06 807.907 1205.53 805.571 1204.99 803.227C1204.45 800.883 1202.11 799.418 1199.77 799.956C1197.42 800.493 1195.96 802.829 1196.49 805.173C1197.03 807.517 1199.37 808.982 1201.71 808.444Z" fill="#DDC2FF"/>
<path d="M1341.59 695.152C1341.44 694.496 1341.1 693.9 1340.61 693.439C1340.12 692.977 1339.5 692.671 1338.84 692.559C1338.18 692.447 1337.49 692.534 1336.88 692.81C1336.27 693.085 1335.75 693.536 1335.39 694.106C1335.03 694.675 1334.85 695.338 1334.87 696.01C1334.89 696.683 1335.11 697.334 1335.5 697.882C1335.89 698.43 1336.43 698.85 1337.06 699.089C1337.69 699.329 1338.38 699.376 1339.03 699.226C1339.47 699.126 1339.88 698.941 1340.24 698.683C1340.61 698.424 1340.92 698.096 1341.15 697.718C1341.39 697.34 1341.55 696.918 1341.63 696.478C1341.7 696.038 1341.69 695.587 1341.59 695.152Z" fill="#DDC2FF"/>
<path d="M1282.01 743.5C1281.05 743.719 1280.18 744.216 1279.51 744.928C1278.84 745.64 1278.39 746.536 1278.23 747.501C1278.06 748.467 1278.19 749.459 1278.59 750.352C1278.99 751.246 1279.65 752 1280.48 752.52C1281.31 753.04 1282.27 753.303 1283.25 753.274C1284.23 753.246 1285.18 752.928 1285.98 752.361C1286.78 751.793 1287.39 751.002 1287.74 750.087C1288.09 749.172 1288.16 748.174 1287.94 747.219C1287.8 746.584 1287.53 745.984 1287.15 745.453C1286.78 744.921 1286.3 744.47 1285.75 744.124C1285.2 743.778 1284.58 743.545 1283.94 743.438C1283.3 743.331 1282.64 743.352 1282.01 743.5Z" fill="#DDC2FF"/>
<path opacity="0.2" d="M1432.89 558.537C1432.33 558.66 1431.83 558.945 1431.44 559.356C1431.04 559.767 1430.78 560.286 1430.69 560.845C1430.59 561.405 1430.66 561.981 1430.89 562.5C1431.12 563.018 1431.5 563.456 1431.99 563.758C1432.47 564.06 1433.03 564.211 1433.6 564.194C1434.16 564.176 1434.71 563.991 1435.18 563.66C1435.64 563.329 1435.99 562.869 1436.19 562.337C1436.39 561.805 1436.43 561.226 1436.3 560.673C1436.13 559.938 1435.67 559.3 1435.03 558.899C1434.4 558.499 1433.62 558.368 1432.89 558.537Z" fill="#DDC2FF"/>
<path d="M1306.9 810.188C1309.39 809.616 1310.95 807.131 1310.38 804.637C1309.81 802.143 1307.33 800.585 1304.83 801.157C1302.33 801.728 1300.77 804.214 1301.35 806.708C1301.92 809.201 1304.4 810.76 1306.9 810.188Z" fill="#DDC2FF"/>
<path d="M1438.62 708.635C1437.86 708.81 1437.17 709.206 1436.63 709.773C1436.09 710.341 1435.73 711.054 1435.59 711.825C1435.46 712.595 1435.55 713.388 1435.87 714.105C1436.18 714.822 1436.7 715.43 1437.36 715.853C1438.01 716.277 1438.78 716.497 1439.57 716.487C1440.35 716.476 1441.11 716.235 1441.76 715.794C1442.4 715.353 1442.9 714.731 1443.2 714.006C1443.49 713.281 1443.57 712.486 1443.41 711.719C1443.17 710.682 1442.54 709.779 1441.65 709.202C1440.75 708.626 1439.67 708.422 1438.62 708.635Z" fill="#DDC2FF"/>
<path d="M1348.87 755.982C1348.59 754.762 1347.96 753.653 1347.05 752.794C1346.13 751.936 1344.99 751.367 1343.76 751.159C1342.52 750.952 1341.25 751.115 1340.11 751.629C1338.97 752.142 1338 752.983 1337.34 754.044C1336.68 755.105 1336.34 756.34 1336.38 757.59C1336.42 758.841 1336.83 760.052 1337.56 761.071C1338.28 762.089 1339.3 762.868 1340.47 763.31C1341.64 763.752 1342.92 763.836 1344.14 763.553C1344.95 763.368 1345.71 763.025 1346.39 762.543C1347.06 762.062 1347.64 761.453 1348.08 760.749C1348.52 760.046 1348.81 759.263 1348.95 758.445C1349.09 757.626 1349.06 756.789 1348.87 755.982Z" fill="#DDC2FF"/>
<path opacity="0.2" d="M1388.17 793.24C1387.36 793.424 1386.64 793.841 1386.07 794.439C1385.51 795.036 1385.13 795.788 1384.99 796.598C1384.86 797.409 1384.96 798.242 1385.3 798.992C1385.64 799.741 1386.19 800.375 1386.88 800.811C1387.58 801.248 1388.39 801.468 1389.21 801.444C1390.04 801.421 1390.83 801.154 1391.5 800.677C1392.17 800.201 1392.69 799.537 1392.98 798.769C1393.27 798.001 1393.33 797.163 1393.15 796.362C1392.9 795.29 1392.23 794.361 1391.3 793.777C1390.37 793.192 1389.24 792.999 1388.17 793.24Z" fill="#DDC2FF"/>
</g>
</g>
<defs>
<filter id="filter0_f_678_18293" x="420" y="-591" width="1448" height="1448" filterUnits="userSpaceOnUse" color-interpolation-filters="sRGB">
<feFlood flood-opacity="0" result="BackgroundImageFix"/>
<feBlend mode="normal" in="SourceGraphic" in2="BackgroundImageFix" result="shape"/>
<feGaussianBlur stdDeviation="150" result="effect1_foregroundBlur_678_18293"/>
</filter>
<filter id="filter1_f_678_18293" x="-636" y="-248" width="1448" height="1448" filterUnits="userSpaceOnUse" color-interpolation-filters="sRGB">
<feFlood flood-opacity="0" result="BackgroundImageFix"/>
<feBlend mode="normal" in="SourceGraphic" in2="BackgroundImageFix" result="shape"/>
<feGaussianBlur stdDeviation="150" result="effect1_foregroundBlur_678_18293"/>
</filter>
<filter id="filter2_f_678_18293" x="145" y="6" width="1194" height="1194" filterUnits="userSpaceOnUse" color-interpolation-filters="sRGB">
<feFlood flood-opacity="0" result="BackgroundImageFix"/>
<feBlend mode="normal" in="SourceGraphic" in2="BackgroundImageFix" result="shape"/>
<feGaussianBlur stdDeviation="150" result="effect1_foregroundBlur_678_18293"/>
</filter>
<filter id="filter3_f_678_18293" x="-212" y="-672" width="1448" height="1448" filterUnits="userSpaceOnUse" color-interpolation-filters="sRGB">
<feFlood flood-opacity="0" result="BackgroundImageFix"/>
<feBlend mode="normal" in="SourceGraphic" in2="BackgroundImageFix" result="shape"/>
<feGaussianBlur stdDeviation="150" result="effect1_foregroundBlur_678_18293"/>
</filter>
<filter id="filter4_f_678_18293" x="652" y="204" width="1278" height="1278" filterUnits="userSpaceOnUse" color-interpolation-filters="sRGB">
<feFlood flood-opacity="0" result="BackgroundImageFix"/>
<feBlend mode="normal" in="SourceGraphic" in2="BackgroundImageFix" result="shape"/>
<feGaussianBlur stdDeviation="150" result="effect1_foregroundBlur_678_18293"/>
</filter>
<filter id="filter5_f_678_18293" x="-803" y="-248" width="1278" height="1278" filterUnits="userSpaceOnUse" color-interpolation-filters="sRGB">
<feFlood flood-opacity="0" result="BackgroundImageFix"/>
<feBlend mode="normal" in="SourceGraphic" in2="BackgroundImageFix" result="shape"/>
<feGaussianBlur stdDeviation="150" result="effect1_foregroundBlur_678_18293"/>
</filter>
<linearGradient id="paint0_linear_678_18293" x1="537" y1="-581" x2="1568" y2="450" gradientUnits="userSpaceOnUse">
<stop stop-color="white"/>
<stop offset="1" stop-color="white" stop-opacity="0"/>
</linearGradient>
<linearGradient id="paint1_linear_678_18293" x1="139" y1="-676" x2="1630" y2="815" gradientUnits="userSpaceOnUse">
<stop stop-color="white"/>
<stop offset="1" stop-color="white" stop-opacity="0"/>
</linearGradient>
<linearGradient id="paint2_linear_678_18293" x1="-115" y1="-495" x2="1376" y2="996" gradientUnits="userSpaceOnUse">
<stop stop-color="white"/>
<stop offset="1" stop-color="white" stop-opacity="0"/>
</linearGradient>
<clipPath id="clip0_678_18293">
<rect width="1440" height="806" fill="white"/>
</clipPath>
<clipPath id="clip1_678_18293">
<rect width="1324.27" height="896.7" fill="white" transform="translate(445 475.759) rotate(-12.9051)"/>
</clipPath>
</defs>
</svg>
