<svg width="44" height="44" viewBox="0 0 44 44" fill="none" xmlns="http://www.w3.org/2000/svg">
<path d="M21.9531 0.46167C19.1302 0.46167 16.3349 1.01884 13.7269 2.10118C11.1188 3.18364 8.74923 4.7701 6.75304 6.7701C4.75698 8.77022 3.17364 11.1445 2.09331 13.7577C1.0131 16.3708 0.457031 19.1717 0.457031 22.0001C0.457031 24.8286 1.0131 27.6294 2.09331 30.2426C3.17364 32.8558 4.75698 35.23 6.75304 37.2302C8.74923 39.2302 11.1188 40.8166 13.7269 41.8991C16.3349 42.9814 19.1302 43.5386 21.9531 43.5386V32.7694C20.5416 32.7694 19.144 32.4908 17.84 31.9495C16.536 31.4084 15.3511 30.6151 14.3531 29.6151C13.355 28.6151 12.5634 27.4279 12.0233 26.1214C11.483 24.8148 11.2051 23.4144 11.2051 22.0001C11.2051 20.5859 11.483 19.1855 12.0233 17.8789C12.5634 16.5723 13.355 15.3851 14.3531 14.3851C15.3511 13.3851 16.536 12.5919 17.84 12.0507C19.144 11.5094 20.5416 11.2309 21.9531 11.2309V0.46167Z" fill="white"/>
<path d="M21.9534 29.1794C25.9108 29.1794 29.1187 25.9652 29.1187 22C29.1187 18.0348 25.9108 14.8206 21.9534 14.8206C17.996 14.8206 14.7881 18.0348 14.7881 22C14.7881 25.9652 17.996 29.1794 21.9534 29.1794Z" fill="white"/>
<path d="M0.457031 22C0.457031 24.8284 1.0131 27.6293 2.09331 30.2425C3.17364 32.8556 4.75698 35.2299 6.75304 37.23C8.74923 39.23 11.1188 40.8165 13.7269 41.8989C16.3349 42.9813 19.1302 43.5385 21.9531 43.5385C24.776 43.5385 27.5713 42.9813 30.1793 41.8989C32.7874 40.8165 35.157 39.23 37.1532 37.23C39.1492 35.2299 40.7326 32.8556 41.8129 30.2425C42.8931 27.6293 43.4492 24.8284 43.4492 22H32.7011C32.7011 23.4143 32.4232 24.8146 31.8829 26.1212C31.3428 27.4278 30.5512 28.615 29.5531 29.615C28.5551 30.615 27.3702 31.4082 26.0662 31.9494C24.7622 32.4907 23.3646 32.7692 21.9531 32.7692C20.5416 32.7692 19.144 32.4907 17.84 31.9494C16.536 31.4082 15.3511 30.615 14.3531 29.615C13.355 28.615 12.5634 27.4278 12.0233 26.1212C11.483 24.8146 11.2051 23.4143 11.2051 22H0.457031Z" fill="white"/>
</svg>
