<svg width="156" height="48" viewBox="0 0 156 48" fill="none" xmlns="http://www.w3.org/2000/svg">
<path d="M23.9531 2.46167C21.1302 2.46167 18.3349 3.01884 15.7269 4.10118C13.1188 5.18364 10.7492 6.7701 8.75304 8.7701C6.75698 10.7702 5.17364 13.1445 4.09331 15.7577C3.0131 18.3708 2.45703 21.1717 2.45703 24.0001C2.45703 26.8286 3.0131 29.6294 4.09331 32.2426C5.17364 34.8558 6.75698 37.23 8.75304 39.2302C10.7492 41.2302 13.1188 42.8166 15.7269 43.8991C18.3349 44.9814 21.1302 45.5386 23.9531 45.5386V34.7694C22.5416 34.7694 21.144 34.4908 19.84 33.9495C18.536 33.4084 17.3511 32.6151 16.3531 31.6151C15.355 30.6151 14.5634 29.4279 14.0233 28.1214C13.483 26.8148 13.2051 25.4144 13.2051 24.0001C13.2051 22.5859 13.483 21.1855 14.0233 19.8789C14.5634 18.5723 15.355 17.3851 16.3531 16.3851C17.3511 15.3851 18.536 14.5919 19.84 14.0507C21.144 13.5094 22.5416 13.2309 23.9531 13.2309V2.46167Z" fill="white"/>
<path d="M23.9534 31.1794C27.9108 31.1794 31.1187 27.9652 31.1187 24C31.1187 20.0348 27.9108 16.8206 23.9534 16.8206C19.996 16.8206 16.7881 20.0348 16.7881 24C16.7881 27.9652 19.996 31.1794 23.9534 31.1794Z" fill="white"/>
<path d="M2.45703 24C2.45703 26.8284 3.0131 29.6293 4.09331 32.2425C5.17364 34.8556 6.75698 37.2299 8.75305 39.23C10.7492 41.23 13.1188 42.8165 15.7269 43.8989C18.3349 44.9813 21.1302 45.5385 23.9531 45.5385C26.776 45.5385 29.5713 44.9813 32.1793 43.8989C34.7874 42.8165 37.157 41.23 39.1532 39.23C41.1492 37.2299 42.7326 34.8556 43.8129 32.2425C44.8931 29.6293 45.4492 26.8284 45.4492 24H34.7011C34.7011 25.4143 34.4232 26.8146 33.8829 28.1212C33.3428 29.4278 32.5512 30.615 31.5531 31.615C30.5551 32.615 29.3702 33.4082 28.0662 33.9494C26.7622 34.4907 25.3646 34.7692 23.9531 34.7692C22.5416 34.7692 21.144 34.4907 19.84 33.9494C18.536 33.4082 17.3511 32.615 16.3531 31.615C15.355 30.615 14.5634 29.4278 14.0233 28.1212C13.483 26.8146 13.2051 25.4143 13.2051 24H2.45703Z" fill="white"/>
<path d="M31.1179 24.0001C31.1179 22.096 30.3629 20.2699 29.0192 18.9234C27.6754 17.577 25.8529 16.8206 23.9525 16.8206C22.0522 16.8206 20.2297 17.577 18.8859 18.9234C17.5421 20.2699 16.7871 22.096 16.7871 24.0001H23.9525H31.1179Z" fill="white"/>
<path d="M56.6757 15.9077H54.0059V30.7693H56.6757V15.9077Z" fill="white"/>
<path d="M58.4189 25.5041C58.4189 28.9435 60.7921 31.0666 63.9281 31.0666C67.0641 31.0666 69.4372 28.9435 69.4372 25.5041C69.4372 22.0647 67.0641 19.9417 63.9281 19.9417C60.7921 19.9417 58.4189 22.0647 58.4189 25.5041ZM61.0888 25.5041C61.0888 23.466 62.2753 22.277 63.9281 22.277C65.5808 22.277 66.7674 23.466 66.7674 25.5041C66.7674 27.5423 65.5808 28.7312 63.9281 28.7312C62.2753 28.7312 61.0888 27.5423 61.0888 25.5041Z" fill="white"/>
<path d="M78.9781 20.2389V21.6613H78.7662C78.1306 20.7484 77.1135 19.9417 75.2912 19.9417C72.791 19.9417 70.5449 22.0647 70.5449 25.3343C70.5449 28.6038 72.791 30.7269 75.2912 30.7269C77.1135 30.7269 78.1306 29.8988 78.7239 29.0709H78.9358V30.09C78.9358 32.1281 77.7492 33.0623 76.0117 33.0623C74.2742 33.0623 73.3842 32.1281 73.024 30.9179L70.6297 31.9583C71.1806 33.5505 72.791 35.3127 76.0541 35.3127C79.4019 35.3127 81.6056 33.5505 81.6056 30.1536V20.2389H78.9781ZM76.0964 28.434C74.4437 28.434 73.2147 27.245 73.2147 25.3343C73.2147 23.4235 74.4437 22.2346 76.0964 22.2346C77.7492 22.2346 78.9781 23.4235 78.9781 25.3343C78.9781 27.245 77.7492 28.434 76.0964 28.434Z" fill="white"/>
<path d="M83.332 25.5041C83.332 28.9435 85.7052 31.0666 88.8412 31.0666C91.9771 31.0666 94.3502 28.9435 94.3502 25.5041C94.3502 22.0647 91.9771 19.9417 88.8412 19.9417C85.7052 19.9417 83.332 22.0647 83.332 25.5041ZM86.0018 25.5041C86.0018 23.466 87.1884 22.277 88.8412 22.277C90.4939 22.277 91.6805 23.466 91.6805 25.5041C91.6805 27.5423 90.4939 28.7312 88.8412 28.7312C87.1884 28.7312 86.0018 27.5423 86.0018 25.5041Z" fill="white"/>
<path d="M96.4463 17.1816C96.4463 18.2644 97.273 19.0074 98.333 19.0074C99.3919 19.0074 100.219 18.2644 100.219 17.1816C100.219 16.0989 99.3919 15.3557 98.333 15.3557C97.273 15.3557 96.4463 16.0989 96.4463 17.1816ZM99.667 20.2388H96.9978V30.7693H99.667V20.2388Z" fill="white"/>
<path d="M102.046 35.0155H104.716V29.4106H104.928C105.521 30.2598 106.538 31.0666 108.361 31.0666C110.861 31.0666 113.107 28.9435 113.107 25.5041C113.107 22.0647 110.861 19.9417 108.361 19.9417C106.538 19.9417 105.521 20.7484 104.886 21.6614H104.673V20.2389H102.046V35.0155ZM107.555 28.7737C105.903 28.7737 104.673 27.5847 104.673 25.5041C104.673 23.4235 105.903 22.2346 107.555 22.2346C109.208 22.2346 110.437 23.4235 110.437 25.5041C110.437 27.5847 109.208 28.7737 107.555 28.7737Z" fill="white"/>
<path d="M114.665 23.19C114.665 25.2706 116.402 26.0349 118.606 26.4596L119.157 26.5656C120.47 26.8204 121.064 27.1389 121.064 27.8183C121.064 28.4977 120.47 29.0284 119.242 29.0284C118.012 29.0284 117.017 28.5189 116.741 26.9903L114.283 27.6272C114.644 29.8352 116.487 31.0666 119.242 31.0666C121.911 31.0666 123.649 29.814 123.649 27.606C123.649 25.3979 121.869 24.8036 119.496 24.3365L118.945 24.2303C117.843 24.018 117.25 23.7207 117.25 23.0202C117.25 22.3833 117.801 21.9798 118.818 21.9798C119.835 21.9798 120.555 22.4044 120.809 23.5509L123.226 22.8079C122.717 21.1094 121.171 19.9417 118.818 19.9417C116.317 19.9417 114.665 21.1094 114.665 23.19Z" fill="white"/>
<path d="M135.641 30.7692V20.2388H132.972V25.6738C132.972 27.6271 132.019 28.7735 130.387 28.7735C128.946 28.7735 128.141 27.9881 128.141 26.3957V20.2388H125.471V26.5231C125.471 29.1345 127.103 30.9391 129.561 30.9391C131.488 30.9391 132.379 30.0898 132.803 29.1982H133.014V30.7692H135.641Z" fill="white"/>
<path d="M138.01 20.2387V30.7692H140.68V24.4848C140.68 23.0412 141.358 22.2344 142.587 22.2344C143.647 22.2344 144.282 22.8288 144.282 23.9753V30.7692H146.952V24.4848C146.952 23.0412 147.63 22.2344 148.859 22.2344C149.919 22.2344 150.554 22.8288 150.554 23.9753V30.7692H153.224V23.8479C153.224 21.3002 151.655 20.0688 149.706 20.0688C147.99 20.0688 147.206 20.8332 146.698 21.7248H146.485C145.998 20.7271 145.129 20.0688 143.604 20.0688C142.078 20.0688 141.251 20.7482 140.85 21.555H140.637V20.2387H138.01Z" fill="white"/>
</svg>
