<svg width="562" height="493" viewBox="0 0 562 493" fill="none" xmlns="http://www.w3.org/2000/svg">
<path d="M328.924 50.4462V128.137C328.928 129.161 328.729 130.177 328.341 131.125C327.952 132.073 327.38 132.934 326.659 133.66C325.937 134.386 325.079 134.962 324.135 135.355C323.191 135.749 322.178 135.951 321.156 135.951H170.271C169.247 135.951 168.234 135.749 167.289 135.356C166.344 134.963 165.485 134.387 164.762 133.662C164.039 132.936 163.465 132.074 163.074 131.126C162.684 130.178 162.483 129.162 162.484 128.137V50.4462C162.486 49.4224 162.688 48.4088 163.08 47.4634C163.472 46.518 164.046 45.6592 164.769 44.9361C165.492 44.213 166.35 43.6397 167.294 43.2491C168.238 42.8584 169.249 42.6579 170.271 42.6591H321.156C323.216 42.6591 325.192 43.4795 326.649 44.9398C328.106 46.4002 328.924 48.3809 328.924 50.4462Z" fill="#F2E5FF"/>
<path d="M328.924 50.4462V61.1873H162.484V50.4462C162.486 49.4224 162.688 48.4088 163.08 47.4634C163.472 46.518 164.046 45.6592 164.769 44.9361C165.492 44.213 166.35 43.6397 167.294 43.2491C168.238 42.8584 169.249 42.6579 170.271 42.6591H321.156C323.216 42.6591 325.192 43.4795 326.649 44.9399C328.106 46.4002 328.924 48.3809 328.924 50.4462Z" fill="#8667E0"/>
<path d="M176.156 55.6767C177.913 55.6767 179.337 54.249 179.337 52.4878C179.337 50.7266 177.913 49.2989 176.156 49.2989C174.399 49.2989 172.975 50.7266 172.975 52.4878C172.975 54.249 174.399 55.6767 176.156 55.6767Z" fill="#F2E6FF"/>
<path d="M187.772 55.6767C189.529 55.6767 190.953 54.249 190.953 52.4878C190.953 50.7266 189.529 49.2989 187.772 49.2989C186.015 49.2989 184.591 50.7266 184.591 52.4878C184.591 54.249 186.015 55.6767 187.772 55.6767Z" fill="#F2E6FF"/>
<path d="M199.847 55.6767C201.604 55.6767 203.028 54.249 203.028 52.4878C203.028 50.7266 201.604 49.2989 199.847 49.2989C198.09 49.2989 196.666 50.7266 196.666 52.4878C196.666 54.249 198.09 55.6767 199.847 55.6767Z" fill="#F2E6FF"/>
<rect x="170.629" y="68.91" width="44.4423" height="57.9574" rx="4" fill="white"/>
<rect x="174.669" y="72.9535" width="36.3619" height="10.7828" rx="2" fill="#F2E5FF"/>
<rect opacity="0.4" x="174.669" y="87.7798" width="36.3619" height="10.7828" rx="2" fill="#F2E5FF"/>
<rect opacity="0.4" width="36.3622" height="10.7827" rx="2" transform="matrix(0.995179 -0.0980726 0.0979127 0.995195 174.229 104.415)" fill="#F2E5FF"/>
<rect x="223.15" y="68.91" width="44.4423" height="57.9574" rx="4" fill="white"/>
<rect x="227.19" y="72.9535" width="36.3619" height="10.7828" rx="2" fill="#F2E5FF"/>
<rect opacity="0.4" x="227.19" y="87.7798" width="36.3619" height="10.7828" rx="2" fill="#F2E5FF"/>
<rect x="275.674" y="68.91" width="44.4423" height="57.9574" rx="4" fill="white"/>
<rect x="279.714" y="72.9535" width="36.3619" height="10.7828" rx="2" fill="#F2E5FF"/>
<rect opacity="0.4" width="36.3624" height="10.7826" rx="2" transform="matrix(0.990985 0.133973 -0.133757 0.991014 280.599 85.3926)" fill="#F2E5FF"/>
<rect opacity="0.4" x="279.714" y="102.606" width="36.3619" height="10.7828" rx="2" fill="#F2E5FF"/>
<path d="M208.278 364.616H132.174V377.798H208.278V364.616Z" fill="#6527B5"/>
<path d="M200.118 480.103H220.571L200.021 377.953H190.23V377.706H151.889V377.752H142.246L121.696 479.919H142.154L156.861 406.779C157.474 403.75 160.558 401.53 164.163 401.53H178.069C181.68 401.53 184.759 403.75 185.371 406.779L200.118 480.103Z" fill="#4B168F"/>
<path d="M202.802 391.83L141.268 383.024L142.275 378.016L200.061 378.211L202.802 391.83Z" fill="#320769"/>
<path d="M388.968 137.021C388.968 137.021 384.053 156.295 389.712 163.936C394.565 170.476 399.04 170.287 399.04 170.287L399.412 184.496C399.412 184.496 404.82 185.069 410.228 180.383C415.635 175.696 417.312 172.157 417.312 172.157L415.63 166.179L420.105 140.365L396.242 132.139L388.968 137.021Z" fill="#FBCCBC"/>
<path d="M304.226 160.963L266.157 119.925L264.267 121.687L302.336 162.725L304.226 160.963Z" fill="#231F20"/>
<path d="M317.528 160.368C317.528 160.368 308.721 147.065 306.615 145.97C302.61 144.111 298.376 142.793 294.025 142.051C288.875 141.214 286.643 142.396 286.849 143.342C287.055 144.289 294.483 145.843 297.544 147.111C300.606 148.379 303.685 150.777 301.064 152.354C298.443 153.932 291.616 153.691 291.467 155.595C291.318 157.5 297.012 157.758 300.228 157.689C303.444 157.62 310.071 166.036 310.071 166.036L317.528 160.368Z" fill="#FBCCBC"/>
<path d="M399.154 182.878L352.081 194.351L318.077 157.638C314.08 159.656 310.437 162.313 307.29 165.502C307.29 165.502 331.159 206.467 339.983 213.023C348.807 219.58 392.631 213.35 392.631 213.35L399.154 182.878Z" fill="url(#paint0_linear_89_978)"/>
<path d="M432.38 297.895C429.742 322.934 422.171 351.594 412.843 382.462L398.794 463.92H378.29C378.29 463.92 379.715 399.201 380.911 377.66C382.01 357.875 387.286 298.629 387.286 298.629C387.286 298.629 390.285 288.613 410.273 287.11C430.262 285.607 432.38 297.895 432.38 297.895Z" fill="url(#paint1_linear_89_978)"/>
<path d="M446.738 464.086L425.078 463.725C425.078 463.725 407.641 397.314 403.332 374.809C400.334 359.246 393.999 321.104 390.691 300.906C389.655 294.671 388.928 290.145 388.665 288.515L388.551 287.856L436.678 288.148C436.669 288.176 436.669 288.206 436.678 288.234C437.25 294.292 437.536 300.528 437.645 306.924C438.022 328.149 436.288 351.095 434.783 375.286L446.738 464.086Z" fill="url(#paint2_linear_89_978)"/>
<path d="M434.2 463.885C434.057 463.082 419.893 383.001 418.445 372.991C416.998 362.981 415.556 302.805 415.47 300.287H416.7C416.7 300.906 418.188 362.814 419.653 372.813C421.118 382.812 435.327 463.094 435.47 463.903L434.2 463.885Z" fill="url(#paint3_linear_89_978)"/>
<path opacity="0.59" d="M437.644 306.93C432.271 307.149 426.89 307.015 421.535 306.528C411.107 305.541 400.782 303.662 390.673 300.912C389.637 294.676 388.911 290.15 388.647 288.521L436.677 288.24C437.232 294.298 437.535 300.51 437.644 306.93Z" fill="#39345B"/>
<path d="M438.858 298.893C428.86 300.39 416.54 300.574 404.431 299.965C399.515 299.707 394.639 299.329 389.981 298.847C388.207 298.663 386.485 298.468 384.785 298.273L384.882 287.58C385.214 218.743 399.286 181.559 399.286 181.559C403.618 180.842 416.946 171.445 416.946 171.445C416.946 171.445 420.379 171.807 425.598 177.05C430.817 182.293 434.274 190.376 434.892 194.925C438.383 220.831 441.541 267.176 438.858 298.893Z" fill="url(#paint4_linear_89_978)"/>
<path d="M445.885 464.104L448.431 478.709H400.825C400.825 478.709 401.34 473.758 416.453 470.918C418.619 470.532 420.681 469.698 422.506 468.468C424.332 467.238 425.882 465.64 427.057 463.777L445.885 464.104Z" fill="#1B144E"/>
<path d="M448.431 478.709L448.128 483.871H401.352L400.825 478.709H448.431Z" fill="#20536B"/>
<path d="M397.815 464.281L400.338 478.915H352.732C352.732 478.915 353.247 473.965 368.355 471.119C370.522 470.733 372.584 469.899 374.411 468.669C376.238 467.44 377.789 465.842 378.965 463.977L397.815 464.281Z" fill="#1B144E"/>
<path d="M400.338 478.915L400.035 484.078H353.253L352.732 478.915H400.338Z" fill="#20536B"/>
<path d="M402.765 149.153C402.765 149.153 400.717 145.413 401.089 138.311C401.089 138.311 386.17 140.927 381.884 129.707C377.597 118.486 390.834 116.249 398.479 124.848C398.479 124.848 420.854 118.681 424.768 133.82C424.768 133.82 436.145 138.306 430.92 147.277C425.696 156.249 416.562 159.049 415.63 166.156C415.63 166.156 411.343 163.535 412.648 156.978C413.953 150.421 418.245 145.201 413.793 142.958C409.34 140.715 403.538 150.645 403.538 150.645L402.765 149.153Z" fill="#231F20"/>
<path d="M399.034 170.269L407.36 166.891L399.16 179.075L399.034 170.269Z" fill="#F79F8B"/>
<path d="M425.467 258.433C419.304 280.043 407.155 296.472 404.431 299.966C399.515 299.707 394.64 299.329 389.981 298.847L407.721 245.532L420.591 197.03L429.645 200.524C429.645 200.524 432.414 234.013 425.467 258.433Z" fill="#9990C5"/>
<path d="M394.754 299.638C394.754 299.638 393.61 309 390.514 312.431C386.628 316.756 380.934 316.2 380.934 316.2L369.993 315.861C369.993 315.861 369.649 313.286 373.426 311.404C377.203 309.522 379.578 306.086 379.578 304.715C379.578 303.344 374.427 309.173 373.764 306.947C373.1 304.721 376.842 300.258 380.093 298.377C383.343 296.495 387.103 291.177 387.103 291.177C387.103 291.177 394.714 291.131 394.754 299.638Z" fill="#FBCCBC"/>
<path d="M402.811 196.6L400.413 244.293L383.171 293.495C387.783 296.604 392.213 299.013 396.333 300.229C396.333 300.229 420.133 254.911 421.827 248.142C423.521 241.373 431.366 207.373 429.237 190.64C427.864 179.907 403.429 178.444 402.811 196.6Z" fill="url(#paint5_linear_89_978)"/>
<path d="M258.757 285.842L221.16 279.624L204.29 268.386L196.925 280.433C196.925 280.433 209.909 291.51 215.145 292.479C220.382 293.449 255.455 294.619 255.455 294.619L258.757 285.842Z" fill="#FBCCBC"/>
<path d="M234.9 460.971L233.578 447.938L250.809 442.62C250.809 442.62 252.354 454.139 257.876 458.786C263.398 463.432 243.078 468.756 243.078 468.756L235.787 464.987L234.9 460.971Z" fill="#FBCCBC"/>
<path d="M270.775 434.979L266.706 422.497L282.409 413.622C282.409 413.622 286.369 424.522 292.755 427.912C299.142 431.302 280.412 440.808 280.412 440.808L272.492 438.685L270.775 434.979Z" fill="#FBCCBC"/>
<path d="M233.824 461.327L233.314 474.704H288.743C288.743 474.704 288.743 467.373 270.809 463.232C266.408 462.21 262.534 459.537 259.392 456.543C253.876 451.294 255.083 461.08 253.67 462.073C250.082 464.574 233.824 461.327 233.824 461.327Z" fill="#9B92C7"/>
<path d="M233.309 474.704L233.961 479.483H287.112L288.743 474.704" fill="#7A73A0"/>
<path d="M269.808 435.553L272.154 448.747L326.312 436.907C326.312 436.907 324.756 429.748 306.352 429.53C301.831 429.472 297.482 427.688 293.762 425.434C287.256 421.481 290.518 430.786 289.344 432.06C286.392 435.272 269.808 435.553 269.808 435.553Z" fill="#9B92C7"/>
<path d="M272.147 448.73L273.801 453.262L325.734 441.915L326.311 436.895" fill="#7A73A0"/>
<path d="M219.14 216.11C219.14 216.11 211.58 235.115 204.21 238.281C196.839 241.448 190.939 236.801 190.939 236.801L185.405 247.7L171.396 237.168C171.396 237.168 177.497 230.938 180.358 225.649C183.219 220.36 182.647 197.999 200.387 201.327C218.127 204.654 219.14 216.11 219.14 216.11Z" fill="#FBCCBC"/>
<path d="M185.909 246.932C185.909 246.932 201.457 263.241 209.102 268.656C207.259 274.518 203.517 279.957 199.025 285.223C199.025 285.223 177.428 268.621 177.428 259.598C177.428 250.574 177.994 244.574 185.909 246.932Z" fill="url(#paint6_linear_89_978)"/>
<path d="M194.665 291.194L200.17 300.625L247.736 308.725L245.092 314.571C245.092 314.571 193.377 315.574 190.585 313.865C187.792 312.156 178.315 301.566 178.315 301.566C178.315 301.566 179.557 295.336 184.833 292.221C190.11 289.106 194.665 291.194 194.665 291.194Z" fill="#FBCCBC"/>
<path d="M250.625 390.866C249.435 370.616 247.581 350.951 244.72 344.727C243.175 341.383 236.359 337.625 227.043 334.109L226.35 333.857C215.163 329.709 200.559 325.952 187.151 323.663C176.1 321.781 165.863 320.904 159.019 321.655C136.701 324.105 136.065 336.266 136.065 336.266C136.065 336.266 137.479 365.252 160.278 364.948C185.875 364.621 211.683 360.158 214.121 362.602C216.559 365.046 231.993 448.902 231.993 448.902C238.339 448.621 245.904 446.906 252.542 444.536C252.542 444.536 252.153 417.208 250.625 390.866Z" fill="url(#paint7_linear_89_978)"/>
<path d="M285.613 418.544C279.123 422.072 272.645 424.321 266.202 424.677C261.132 414.414 255.901 402.482 250.625 390.866C237.057 360.973 227.002 334.011 227.002 334.011L226.35 333.857C215.162 329.709 197.691 325.103 184.289 322.82L187.797 319.441C187.797 319.441 241.927 316.234 252.811 329.371C266.677 346.133 285.613 418.544 285.613 418.544Z" fill="url(#paint8_linear_89_978)"/>
<path d="M207.025 211.824C207.025 211.824 225.807 228.885 234.019 220.355C242.23 211.824 233.835 204.74 221.515 202.68C221.515 202.68 205.268 185.064 195.878 190.358C195.878 190.358 182.384 190.358 180.919 202.979C180.036 210.494 179.845 218.076 180.347 225.626C180.347 225.626 188.856 222.976 191.494 217.98C194.132 212.983 192.398 210.276 197.217 209.254C202.035 208.233 200.267 218.433 200.267 218.433L207.025 211.824Z" fill="#231F20"/>
<path d="M189.514 319.24C183.036 328.2 136.558 348.605 136.558 348.605C136.558 348.605 123.322 317.898 130.166 283.639C137.01 249.381 172.261 236.13 172.261 236.13C172.261 236.13 184.879 243.828 185.921 246.926C186.962 250.024 187.534 267.055 184.439 279.481C182.991 285.101 181.105 290.598 178.796 295.921C176.999 300.092 175.603 302.719 175.603 302.719L185.795 314.834L189.514 319.24Z" fill="url(#paint9_linear_89_978)"/>
<path d="M185.795 314.812C182.212 315.012 178.634 314.333 175.372 312.834C172.11 311.334 169.262 309.059 167.076 306.207C159.15 296.019 163.299 265.822 163.299 265.822L178.796 295.921C176.999 300.092 175.603 302.719 175.603 302.719L185.795 314.812Z" fill="#4772B2"/>
<path d="M174.899 304.526C182.6 300.866 189.698 296.047 195.947 290.236C195.947 290.236 188.65 271.008 187.632 262.328C186.613 253.649 181.183 245.848 173.543 246.84C165.737 247.861 161.663 261.646 165.566 279.538C169.468 297.43 174.899 304.526 174.899 304.526Z" fill="url(#paint10_linear_89_978)"/>
<path d="M190.933 236.801L183.528 231.363L188.043 242.612L190.933 236.801Z" fill="#F79F8B"/>
<path d="M463.202 210.78C463.202 210.78 454.383 231.839 466.578 242.01L474.91 245.882L478.052 255.565L494.355 248.423L484.226 210.78H463.202Z" fill="#FBCCBC"/>
<path d="M411.898 433.798L404.739 449.659L391.234 451.822L378.358 444.599L380.705 442.081C380.705 442.081 386.467 440.75 389.426 438.433C392.384 436.115 396.911 428.25 396.911 428.25C396.911 428.25 410.645 426.369 411.898 433.798Z" fill="#FBCCBC"/>
<path d="M445.805 457.076L443.35 474.286L431.006 480.154L416.643 476.85L418.193 473.775C418.193 473.775 423.344 470.907 425.553 467.826C427.761 464.746 429.862 455.969 429.862 455.969C429.862 455.969 442.526 450.296 445.805 457.076Z" fill="#FBCCBC"/>
<path d="M550.487 342.06C550.487 342.06 549.177 364.621 529.428 367.874C527.413 368.205 525.369 368.332 523.328 368.253C497.742 367.438 471.064 367.863 468.626 370.295C466.188 372.727 447.321 459.824 447.321 459.824C440.986 459.549 434.474 458.011 427.824 455.642C427.824 455.642 429.06 370.169 435.653 355.827C440.391 345.502 480.512 337.855 483.013 337.39H483.121L483.156 337.356C484.037 336.478 496.827 324.242 518.372 326.606C524.882 327.274 531.225 329.079 537.114 331.941C546.304 336.467 550.487 342.06 550.487 342.06Z" fill="#3D2276"/>
<path d="M414.171 435.8L394.754 429.673C394.754 429.673 413.638 358.168 427.527 341.429C438.4 328.292 483.11 332.09 483.11 332.09L482.87 337.448L452.54 345.479C452.54 345.479 431.79 400.119 414.171 435.8Z" fill="#381F6F"/>
<path d="M406.971 445.827C406.971 445.827 397.815 449.808 389.804 447.921C381.792 446.034 380.716 442.081 380.716 442.081L357.946 444.003C357.946 444.003 368.441 456.015 380.762 457.277C393.083 458.539 393.249 454.093 396.917 455.309C400.585 456.526 395.337 462.004 395.337 462.004L402.376 463.765C402.376 463.765 408.236 451.214 406.971 445.827Z" fill="#1B144E"/>
<path d="M444.443 470.001C444.443 470.001 436.775 476.385 428.529 476.833C420.282 477.28 418.171 473.775 418.171 473.775L396.843 482.001C396.843 482.001 410.274 490.606 422.457 488.352C434.64 486.097 433.553 481.789 437.421 481.932C441.29 482.076 437.765 488.816 437.765 488.816L445.015 488.529C445.015 488.529 447.15 474.825 444.443 470.001Z" fill="#1B144E"/>
<path d="M550.488 342.06C550.488 342.06 549.177 364.621 529.429 367.874C523.34 364.008 516.908 359.132 513.818 354.301C507.351 344.222 485.102 337.97 483.025 337.396L482.876 337.362H483.179L537.137 331.946C546.305 336.467 550.488 342.06 550.488 342.06Z" fill="#381F6F"/>
<path d="M552.273 346.247C552.273 346.247 531.672 337.643 517.428 336.042C503.185 334.442 482.864 337.379 482.864 337.379C482.864 337.379 483.253 328.648 483.557 320.778C483.74 315.976 483.888 311.49 483.888 309.494C483.888 306.052 479.7 299.243 476.363 292.445C474.595 288.883 473.067 285.303 472.506 282.217C470.881 273.251 474.544 259.414 474.944 256.569C475.345 253.724 487.127 248.819 487.127 248.819C500.53 240.685 508.661 256.156 511.5 263.889C514.338 271.622 526.951 289.129 543.186 306.649C559.421 324.168 552.273 346.247 552.273 346.247Z" fill="url(#paint11_linear_89_978)"/>
<path d="M457.072 255.192C457.072 255.192 462.154 243.186 465.599 242.274C469.044 241.362 472.861 243.547 475.945 242.847C479.03 242.147 481.937 240.61 482.509 241.522C483.081 242.434 480.334 248.251 473.977 249.553C467.619 250.855 466.177 259.196 466.177 259.196C466.177 259.196 457.433 262.988 457.072 255.192Z" fill="#FAB6A0"/>
<path d="M502.87 271.587C502.87 271.587 498.544 308.203 483.557 320.777C483.74 315.976 483.888 311.49 483.888 309.494C483.888 306.052 479.7 299.243 476.363 292.445L502.87 271.587Z" fill="#4772B2"/>
<path d="M468.357 259.724L455.767 254.033C455.767 254.033 441.936 293.282 444.557 309.339C446.136 319.034 462.16 314.439 468.323 310.113C476.168 304.612 491.596 291.43 502.898 271.587C510.338 258.491 495.265 253.466 485.931 262.019C476.598 270.572 462.829 292.646 461.57 293.701L468.357 259.724Z" fill="url(#paint12_linear_89_978)"/>
<path d="M478.932 222.873C478.932 222.873 464.471 219.184 462.634 209.168C460.798 199.153 475.796 202.319 475.796 202.319C475.796 202.319 490.778 194.414 494.984 208.119C499.19 221.823 497.874 227.353 510.229 233.411C522.584 239.469 539.145 247.907 532.833 260.814C526.521 273.721 517.851 273.199 517.851 273.199L491.144 254.2C489.65 252.7 488.547 250.855 487.933 248.827C487.32 246.799 487.214 244.651 487.625 242.572C487.625 242.572 476.706 236.922 478.932 222.873Z" fill="#231F20"/>
<path d="M327.765 314.702H244.908L267.449 261.864H350.306L327.765 314.702Z" fill="#3C2A7C"/>
<path d="M246.803 310.245L190.813 310.848V314.771L244.909 314.703L246.803 310.245Z" fill="#5B4D7D"/>
<path d="M548.708 367.587H472.604V380.77H548.708V367.587Z" fill="#6527B5"/>
<path d="M561.005 483.074H540.547L525.794 409.739C525.176 406.698 522.098 404.49 518.492 404.49H504.592C500.987 404.49 497.891 406.698 497.285 409.739L482.583 482.879H462.131L481.662 385.72L482.669 380.712H492.335V380.666H530.676V380.907H540.478L543.168 394.526L561.005 483.074Z" fill="#4B168F"/>
<path d="M57.6317 444.037L56.8076 475.726L68.7163 482.466L83.2802 480.171L81.9297 477.022C81.9297 477.022 77.014 473.752 75.0626 470.563C73.1112 467.373 73.0654 446.934 73.0654 446.934C73.0654 446.934 61.3857 437.509 57.6317 444.037Z" fill="#FBCCBC"/>
<path d="M15.6279 432.255L2.88379 469.427L14.7982 476.167L29.3621 473.873L28.0345 470.689C28.0345 470.689 22.8841 467.339 22.0773 463.662C20.824 457.73 30.5009 437.612 30.5009 437.612C30.5009 437.612 19.3819 425.726 15.6279 432.255Z" fill="#FBCCBC"/>
<path d="M56.6986 471.716C56.6986 471.716 63.2109 478.29 71.4056 479.328C79.6003 480.366 81.9523 477.033 81.9523 477.033L101.409 486.183C101.523 486.237 101.62 486.322 101.687 486.429C101.755 486.535 101.791 486.659 101.791 486.786C101.791 486.912 101.755 487.036 101.687 487.142C101.62 487.249 101.523 487.334 101.409 487.388C97.7294 489.109 86.5303 493.818 76.6474 491.26C64.6587 488.151 66.0493 483.923 62.1865 483.803C58.3238 483.682 61.3281 490.606 61.3281 490.606L54.1177 489.803C54.1177 489.803 52.3838 478.967 56.6986 471.716Z" fill="#1B144E"/>
<path d="M3.83372 465.572C3.83372 465.572 9.29305 471.991 17.4878 473.029C25.6825 474.068 28.0344 470.735 28.0344 470.735L47.4168 479.862C47.5357 479.918 47.6363 480.006 47.7067 480.118C47.7771 480.229 47.8146 480.358 47.8146 480.49C47.8146 480.621 47.7771 480.751 47.7067 480.862C47.6363 480.973 47.5357 481.062 47.4168 481.118C43.6799 482.89 32.5381 487.514 22.7125 484.967C10.6951 481.852 12.1143 477.63 8.24582 477.51C4.37737 477.389 7.41032 484.336 7.41032 484.336L0.20562 483.504C0.20562 483.504 -1.28797 471.796 3.83372 465.572Z" fill="#1B144E"/>
<path d="M40.7272 266.252C40.7272 266.252 33.7285 316.991 36.6584 349.684L13.957 433.803L30.81 440.418C30.81 440.418 64.8936 370.622 67.4344 356.665C69.9752 342.708 82.5019 272.539 82.5019 272.539C82.5019 272.539 60.8992 247.884 40.7272 266.252Z" fill="#4772B2"/>
<path d="M96.4362 281.006C96.4362 281.006 96.1215 286.141 95.6236 293.827C94.3532 313.808 91.8753 351.032 90.5649 360.187C88.7565 372.859 74.3185 449.321 74.3185 449.321L57.1508 444.795L55.3425 362.453C47.5026 328.241 45.0419 288.412 44.3266 273.71C44.1549 269.987 44.0977 267.876 44.0977 267.876C44.0977 267.876 48.876 264.434 58.6559 264.25C62.0872 264.204 65.5142 264.513 68.8821 265.174C70.8818 265.553 72.8517 266.076 74.7763 266.74C88.1042 271.254 96.4362 281.006 96.4362 281.006Z" fill="#4B77BB"/>
<path d="M156.77 185.683C156.77 185.683 147.58 198.137 142.132 198.137C136.684 198.137 132.403 193.548 132.403 193.548L124.747 199.52L118.108 190.817C118.108 190.817 125.428 172.73 130.194 169.661C134.961 166.592 140.747 159.909 148.409 164.711C156.072 169.512 161.365 173.734 156.77 185.683Z" fill="#FBCCBC"/>
<path d="M170.355 285.596C170.355 285.596 175.174 290.001 178.31 290.213C181.446 290.426 187.941 287.919 188.988 286.852C190.035 285.785 202.596 291.263 202.596 289.795C202.596 288.326 189.2 280.559 187.105 280.559C185.011 280.559 173.709 277.41 173.709 277.41" fill="#FBCCBC"/>
<path d="M64.8025 446.791L63.6064 446.458C63.7037 445.678 73.5751 368.442 73.5751 358.116C73.5751 347.791 69.7353 279.417 69.6952 278.746L70.9199 278.97C70.9599 279.647 74.7883 347.75 74.7883 358.133C74.7883 368.516 65.2088 443.601 64.8025 446.791Z" fill="#96BCE4"/>
<path opacity="0.76" d="M96.4366 281.006C96.4366 281.006 96.1219 286.141 95.624 293.827C67.8181 291.877 47.1596 275.97 44.3441 273.71C44.1725 269.987 44.1152 267.876 44.1152 267.876C44.1152 267.876 48.8936 264.434 58.6734 264.25L74.7939 266.74C88.1046 271.254 96.4366 281.006 96.4366 281.006Z" fill="#4772B2"/>
<path d="M126.8 226.871C125.904 229.223 124.842 231.508 123.624 233.709C116.94 245.624 109.724 245.067 107.475 249.312C107.475 249.312 106.331 252.387 104.797 256.85C102.508 263.636 99.4234 273.658 98.5021 281.029C98.5021 281.029 60.7332 283.559 39.0332 264.916C39.0332 264.916 51.4798 239.205 69.1224 221.863C72.556 218.467 76.144 215.197 79.7263 212.111C83.9439 208.486 88.1786 205.141 92.2473 202.164C92.2866 202.126 92.3309 202.093 92.3789 202.067C96.3447 199.158 100.156 196.617 103.658 194.5C109.953 190.72 115.201 188.345 118.537 187.898C119.342 187.845 120.141 188.078 120.791 188.557C123.681 190.364 126.846 195.441 128.471 198.16C130.571 201.648 129.049 221.083 126.8 226.871Z" fill="url(#paint13_linear_89_978)"/>
<path d="M126.8 226.871C125.904 229.223 124.842 231.508 123.624 233.709C116.94 245.624 109.724 245.067 107.475 249.312C107.475 249.312 106.331 252.387 104.797 256.85C102.508 263.636 99.4234 273.658 98.5021 281.029C98.5021 281.029 60.7332 283.559 39.0332 264.916C39.0332 264.916 51.4798 239.205 69.1224 221.863C72.556 218.467 76.144 215.197 79.7263 212.111C83.9439 208.486 88.1786 205.141 92.2473 202.164C92.2866 202.126 92.3309 202.093 92.3789 202.067C96.3447 199.158 100.156 196.617 103.658 194.5C109.953 190.72 115.201 188.345 118.537 187.898C119.342 187.845 120.141 188.078 120.791 188.557C123.681 190.364 126.846 195.441 128.471 198.16C130.571 201.648 129.049 221.083 126.8 226.871Z" fill="url(#paint14_linear_89_978)"/>
<path d="M123.624 233.709C116.94 245.624 109.724 245.067 107.475 249.312C107.475 249.312 106.331 252.387 104.797 256.85C102.879 250.57 101.47 244.146 100.585 237.639C98.2962 220.487 105.999 201.407 105.999 201.407L123.624 233.709Z" fill="#311D92"/>
<path d="M173.708 277.427L134.577 249.519C134.577 249.519 128.597 210.74 127.035 201.246C125.45 191.621 106.102 189.429 104.78 206.214C103.063 227.755 116.62 260.137 122.062 263.527C127.504 266.918 170.355 285.596 170.355 285.596" fill="url(#paint15_linear_89_978)"/>
<path d="M132.426 193.531L128.146 188.012L129.164 196.181L132.426 193.531Z" fill="#F79F8B"/>
<path d="M157.279 187.043C155.242 184.834 154.561 176.975 154.561 176.975C149.577 177.899 144.564 178.822 143.156 177.801C143.156 177.801 143.785 174.509 143.619 173.413C143.453 172.317 141.737 169.22 139.265 171.405C137.456 173.011 138.326 173.327 135.322 178.037C131.585 183.859 123.905 187.347 120.798 188.58C120.147 188.101 119.349 187.868 118.543 187.921C115.184 188.368 109.914 190.743 103.665 194.523C102.406 195.194 101.129 195.923 99.859 196.749C97.3354 198.367 94.7716 200.225 92.3853 202.09C92.3373 202.116 92.293 202.149 92.2537 202.187C88.185 205.164 83.9503 208.497 79.7327 212.134C73.4379 200.96 75.7269 187.06 85.6384 176.803C95.6815 166.409 117.113 180.905 119.173 179.539C121.233 178.174 120.54 162.99 135.345 155.659C150.149 148.327 164.461 171.176 164.461 171.176C169.531 180.222 157.279 187.043 157.279 187.043Z" fill="#231F20"/>
<path d="M472.061 314.831H153.078V328.525H472.061V314.831Z" fill="#22146B"/>
<path d="M227.758 485.076H237.761L219.231 328.745H215.397V328.55H177.239V328.722H172.678L154.154 485.053H164.152L181.296 340.402H210.613L227.758 485.076Z" fill="url(#paint16_linear_89_978)"/>
<path d="M451.562 484.669H461.565L443.041 328.338H439.201V328.143H401.043V328.315H396.482L377.958 484.646H387.955L405.1 339.989H434.417L451.562 484.669Z" fill="url(#paint17_linear_89_978)"/>
<path d="M543.191 394.526L481.656 385.72L482.669 380.712L540.45 380.907L543.191 394.526Z" fill="#320769"/>
<path d="M302.141 292.8C305.132 290.164 305.91 286.149 303.878 283.831C301.846 281.513 297.774 281.771 294.782 284.406C291.791 287.041 291.014 291.056 293.046 293.374C295.078 295.692 299.15 295.435 302.141 292.8Z" fill="url(#paint18_linear_89_978)"/>
<path d="M473.771 8.07999V81.5019C473.773 82.4697 473.634 83.4284 473.364 84.3231C473.094 85.2177 472.697 86.0309 472.197 86.7159C471.696 87.401 471.101 87.9445 470.447 88.3153C469.792 88.6861 469.09 88.877 468.381 88.877H363.728C363.018 88.878 362.315 88.688 361.659 88.3178C361.003 87.9477 360.407 87.4046 359.905 86.7196C359.403 86.0347 359.005 85.2213 358.733 84.326C358.461 83.4308 358.321 82.4711 358.321 81.5019V8.07999C358.324 6.12536 358.895 4.25232 359.909 2.87239C360.923 1.49246 362.297 0.718508 363.728 0.720585H468.381C469.811 0.720585 471.182 1.49594 472.192 2.8761C473.203 4.25625 473.771 6.12815 473.771 8.07999Z" fill="#F2E6FF"/>
<path d="M473.827 6.11862V13.576H358.5V6.11862C358.503 4.68492 359.074 3.31107 360.087 2.2989C361.1 1.28674 362.472 0.719061 363.902 0.720584H468.442C469.87 0.720584 471.24 1.2893 472.25 2.30163C473.26 3.31395 473.827 4.68697 473.827 6.11862Z" fill="#8667E0"/>
<path d="M367.977 9.73832C369.193 9.73832 370.18 8.74952 370.18 7.52977C370.18 6.31003 369.193 5.32123 367.977 5.32123C366.76 5.32123 365.773 6.31003 365.773 7.52977C365.773 8.74952 366.76 9.73832 367.977 9.73832Z" fill="#F2E6FF"/>
<path d="M376.023 9.73832C377.239 9.73832 378.226 8.74952 378.226 7.52977C378.226 6.31003 377.239 5.32123 376.023 5.32123C374.806 5.32123 373.819 6.31003 373.819 7.52977C373.819 8.74952 374.806 9.73832 376.023 9.73832Z" fill="#F2E6FF"/>
<path d="M384.389 9.73832C385.606 9.73832 386.592 8.74952 386.592 7.52977C386.592 6.31003 385.606 5.32123 384.389 5.32123C383.172 5.32123 382.186 6.31003 382.186 7.52977C382.186 8.74952 383.172 9.73832 384.389 9.73832Z" fill="#F2E6FF"/>
<path d="M377.991 28.406C377.991 23.9877 381.573 20.406 385.991 20.406H424.166C427.475 20.406 430.157 23.0884 430.157 26.3972C430.157 29.7061 427.475 32.3884 424.166 32.3884H377.991V28.406Z" fill="white"/>
<path d="M377.991 59.218C377.991 54.7997 381.573 51.218 385.991 51.218H411.338C414.647 51.218 417.33 53.9003 417.33 57.2092C417.33 60.518 414.647 63.2004 411.338 63.2004H377.991V59.218Z" fill="white"/>
<path d="M428.446 41.8032C428.446 38.4944 431.129 35.812 434.438 35.812H459.785C464.203 35.812 467.785 39.3937 467.785 43.812V47.7944H434.438C431.129 47.7944 428.446 45.1121 428.446 41.8032Z" fill="#8667E0"/>
<path d="M419.04 72.6151C419.04 69.3063 421.722 66.6239 425.031 66.6239H459.785C464.204 66.6239 467.785 70.2056 467.785 74.6239V78.6063H425.031C421.722 78.6063 419.04 75.924 419.04 72.6151Z" fill="#8667E0"/>
<ellipse cx="368.584" cy="26.3972" rx="5.98628" ry="5.99121" fill="white"/>
<ellipse cx="368.584" cy="57.2092" rx="5.98628" ry="5.99121" fill="white"/>
<path d="M419.04 91.8726C419.04 87.382 422.68 83.7417 427.171 83.7417H474.889C480.412 83.7417 484.889 88.2189 484.889 93.7417V100.004H427.171C422.68 100.004 419.04 96.3632 419.04 91.8726Z" fill="#8667E0"/>
<rect opacity="0.23" x="428.447" y="89.7329" width="47.8903" height="4.27945" rx="2.13972" fill="white"/>
<g opacity="0.6">
<path opacity="0.6" d="M135.846 15.2706H10.2181C8.35342 15.2706 6.8418 16.7859 6.8418 18.6552V99.7289C6.8418 101.598 8.35342 103.113 10.2181 103.113H135.846C137.71 103.113 139.222 101.598 139.222 99.7289V18.6552C139.222 16.7859 137.71 15.2706 135.846 15.2706Z" fill="#EFE5FF"/>
</g>
<rect opacity="0.1" x="14.3184" y="23.2514" width="85.5183" height="71.8945" rx="2" fill="#8667E0"/>
<g opacity="0.2">
<path d="M57.0777 59.1987C62.5879 59.1987 67.0549 54.7281 67.0549 49.2133C67.0549 43.6986 62.5879 39.228 57.0777 39.228C51.5675 39.228 47.1006 43.6986 47.1006 49.2133C47.1006 54.7281 51.5675 59.1987 57.0777 59.1987Z" fill="#856BFA"/>
<path d="M57.0779 64.1913C47.0808 64.1913 38.9395 70.9015 38.9395 79.1694C38.9395 79.7286 39.3784 80.1679 39.9372 80.1679H74.2186C74.7773 80.1679 75.2163 79.7286 75.2163 79.1694C75.2163 70.9015 67.075 64.1913 57.0779 64.1913Z" fill="#856BFA"/>
</g>
<rect opacity="0.05" x="104.113" y="23.2514" width="27.3659" height="21.3972" rx="2" fill="#8667E0"/>
<g opacity="0.1">
<path d="M117.797 33.522C119.371 33.522 120.648 32.2447 120.648 30.6691C120.648 29.0934 119.371 27.8161 117.797 27.8161C116.223 27.8161 114.946 29.0934 114.946 30.6691C114.946 32.2447 116.223 33.522 117.797 33.522Z" fill="#856BFA"/>
<path d="M117.797 34.9485C114.94 34.9485 112.614 36.8657 112.614 39.2279C112.614 39.3877 112.74 39.5132 112.899 39.5132H122.694C122.854 39.5132 122.979 39.3877 122.979 39.2279C122.979 36.8657 120.653 34.9485 117.797 34.9485Z" fill="#856BFA"/>
</g>
<rect opacity="0.2" x="104.113" y="48.928" width="27.3659" height="20.5413" rx="2" fill="#8667E0"/>
<g opacity="0.3">
<path d="M117.797 59.1987C119.371 59.1987 120.648 57.9213 120.648 56.3457C120.648 54.77 119.371 53.4927 117.797 53.4927C116.223 53.4927 114.946 54.77 114.946 56.3457C114.946 57.9213 116.223 59.1987 117.797 59.1987Z" fill="#856BFA"/>
<path d="M117.797 60.6251C114.94 60.6251 112.614 62.5423 112.614 64.9046C112.614 65.0643 112.74 65.1899 112.899 65.1899H122.694C122.854 65.1899 122.979 65.0643 122.979 64.9046C122.979 62.5423 120.653 60.6251 117.797 60.6251Z" fill="#856BFA"/>
</g>
<rect opacity="0.15" x="104.113" y="73.7487" width="27.3659" height="21.3972" rx="2" fill="#8667E0"/>
<g opacity="0.2">
<path d="M117.797 84.8752C119.371 84.8752 120.648 83.5979 120.648 82.0223C120.648 80.4466 119.371 79.1693 117.797 79.1693C116.223 79.1693 114.946 80.4466 114.946 82.0223C114.946 83.5979 116.223 84.8752 117.797 84.8752Z" fill="#856BFA"/>
<path d="M117.797 86.3017C114.94 86.3017 112.614 88.2189 112.614 90.5811C112.614 90.7409 112.74 90.8664 112.899 90.8664H122.694C122.854 90.8664 122.979 90.7409 122.979 90.5811C122.979 88.2189 120.653 86.3017 117.797 86.3017Z" fill="#856BFA"/>
</g>
<ellipse cx="67.3399" cy="94.2901" rx="8.55183" ry="8.55887" fill="#4B77BB"/>
<path d="M67.3405 97.8313C65.5446 97.8313 64.0801 96.3691 64.0801 94.5682V93.8978C64.0801 93.7587 64.1941 93.6481 64.3295 93.6481C64.4649 93.6481 64.5789 93.7623 64.5789 93.8978V94.5682C64.5789 96.091 65.8154 97.3284 67.3369 97.3284C68.8584 97.3284 70.0949 96.091 70.0949 94.5682V93.8978C70.0949 93.7587 70.2089 93.6481 70.3443 93.6481C70.4797 93.6481 70.5937 93.7623 70.5937 93.8978V94.5682C70.6008 96.3691 69.1363 97.8313 67.3405 97.8313Z" fill="white"/>
<path d="M67.3406 90.7239C66.1433 90.7239 65.167 91.701 65.167 92.8993V94.5718C65.167 95.77 66.1433 96.7472 67.3406 96.7472C68.5378 96.7472 69.5142 95.77 69.5142 94.5718V92.8993C69.5142 91.701 68.5378 90.7239 67.3406 90.7239ZM68.1174 93.7872C68.0924 93.8835 68.0033 93.9477 67.9071 93.9477C67.8893 93.9477 67.8679 93.9442 67.8501 93.9406C67.4867 93.8407 67.1018 93.8407 66.7384 93.9406C66.6208 93.9727 66.5032 93.9049 66.4711 93.7872C66.4391 93.6731 66.5068 93.5519 66.6244 93.5198C67.0626 93.3985 67.5259 93.3985 67.9642 93.5198C68.0817 93.5519 68.1494 93.6696 68.1174 93.7872ZM68.4202 92.7994C68.3882 92.8886 68.3062 92.9421 68.2171 92.9421C68.1922 92.9421 68.1673 92.9385 68.1423 92.9278C67.5971 92.7281 66.9985 92.7281 66.4533 92.9278C66.3393 92.9706 66.2146 92.9135 66.1718 92.7994C66.1326 92.6889 66.1896 92.564 66.3037 92.5212C66.9451 92.2894 67.6506 92.2894 68.2884 92.5212C68.4024 92.564 68.4594 92.6889 68.4202 92.7994Z" fill="white"/>
<ellipse cx="46.8155" cy="94.2901" rx="8.55183" ry="8.55887" fill="#4B35AE"/>
<path d="M50.0768 92.2109C49.9307 92.1325 49.6243 92.0505 49.2074 92.3429L48.6836 92.7138C48.6444 91.6047 48.1633 91.1696 46.9946 91.1696H44.8566C43.638 91.1696 43.1641 91.6439 43.1641 92.8636V95.7165C43.1641 96.5367 43.6095 97.4105 44.8566 97.4105H46.9946C48.1633 97.4105 48.6444 96.9754 48.6836 95.8663L49.2074 96.2372C49.4283 96.3941 49.6207 96.444 49.7739 96.444C49.9058 96.444 50.0091 96.4048 50.0768 96.3691C50.2229 96.2942 50.4688 96.091 50.4688 95.581V92.9991C50.4688 92.4891 50.2229 92.2858 50.0768 92.2109ZM46.4601 94.0689C46.0931 94.0689 45.7902 93.7694 45.7902 93.3985C45.7902 93.0276 46.0931 92.728 46.4601 92.728C46.8271 92.728 47.13 93.0276 47.13 93.3985C47.13 93.7694 46.8271 94.0689 46.4601 94.0689Z" fill="white"/>
<defs>
<linearGradient id="paint0_linear_89_978" x1="357.683" y1="184.41" x2="367.388" y2="206.535" gradientUnits="userSpaceOnUse">
<stop stop-color="#ADA9D4"/>
<stop offset="0.4" stop-color="#A9A5D1"/>
<stop offset="0.83" stop-color="#9F97C9"/>
<stop offset="1" stop-color="#9990C5"/>
</linearGradient>
<linearGradient id="paint1_linear_89_978" x1="343.388" y1="402.264" x2="397.702" y2="377.193" gradientUnits="userSpaceOnUse">
<stop stop-color="#7468AE"/>
<stop offset="0.22" stop-color="#7165AA"/>
<stop offset="0.46" stop-color="#685E9C"/>
<stop offset="0.71" stop-color="#5A5287"/>
<stop offset="0.97" stop-color="#464068"/>
<stop offset="1" stop-color="#433E64"/>
</linearGradient>
<linearGradient id="paint2_linear_89_978" x1="41946.9" y1="141424" x2="55641.7" y2="137670" gradientUnits="userSpaceOnUse">
<stop stop-color="#7468AE"/>
<stop offset="0.22" stop-color="#7165AA"/>
<stop offset="0.46" stop-color="#685E9C"/>
<stop offset="0.71" stop-color="#5A5287"/>
<stop offset="0.97" stop-color="#464068"/>
<stop offset="1" stop-color="#433E64"/>
</linearGradient>
<linearGradient id="paint3_linear_89_978" x1="15932.8" y1="124194" x2="16631.6" y2="124194" gradientUnits="userSpaceOnUse">
<stop stop-color="#ADA9D4"/>
<stop offset="0.4" stop-color="#A9A5D1"/>
<stop offset="0.83" stop-color="#9F97C9"/>
<stop offset="1" stop-color="#9990C5"/>
</linearGradient>
<linearGradient id="paint4_linear_89_978" x1="37442.3" y1="54765.8" x2="49011.2" y2="59514.9" gradientUnits="userSpaceOnUse">
<stop stop-color="#ADA9D4"/>
<stop offset="0.4" stop-color="#A9A5D1"/>
<stop offset="0.83" stop-color="#9F97C9"/>
<stop offset="1" stop-color="#9990C5"/>
</linearGradient>
<linearGradient id="paint5_linear_89_978" x1="34979.1" y1="50865.7" x2="43491.6" y2="69791.1" gradientUnits="userSpaceOnUse">
<stop stop-color="#ADA9D4"/>
<stop offset="0.4" stop-color="#A9A5D1"/>
<stop offset="0.83" stop-color="#9F97C9"/>
<stop offset="1" stop-color="#9990C5"/>
</linearGradient>
<linearGradient id="paint6_linear_89_978" x1="202.676" y1="244.74" x2="181.047" y2="281.31" gradientUnits="userSpaceOnUse">
<stop stop-color="#6E82C0"/>
<stop offset="1" stop-color="#4B77BB"/>
</linearGradient>
<linearGradient id="paint7_linear_89_978" x1="169.428" y1="414.97" x2="229.731" y2="351.889" gradientUnits="userSpaceOnUse">
<stop stop-color="#7468AE"/>
<stop offset="0.22" stop-color="#7165AA"/>
<stop offset="0.45" stop-color="#695E9C"/>
<stop offset="0.7" stop-color="#5B5287"/>
<stop offset="0.84" stop-color="#504876"/>
<stop offset="1" stop-color="#433E64"/>
</linearGradient>
<linearGradient id="paint8_linear_89_978" x1="53036.7" y1="75720.7" x2="44735.2" y2="78585" gradientUnits="userSpaceOnUse">
<stop stop-color="#7468AE"/>
<stop offset="0.22" stop-color="#7165AA"/>
<stop offset="0.46" stop-color="#685E9C"/>
<stop offset="0.71" stop-color="#5A5287"/>
<stop offset="0.97" stop-color="#464068"/>
<stop offset="1" stop-color="#433E64"/>
</linearGradient>
<linearGradient id="paint9_linear_89_978" x1="22911.6" y1="56600.9" x2="14020.2" y2="69578.7" gradientUnits="userSpaceOnUse">
<stop stop-color="#6E82C0"/>
<stop offset="1" stop-color="#4B77BB"/>
</linearGradient>
<linearGradient id="paint10_linear_89_978" x1="11843.8" y1="30234.2" x2="11556.7" y2="34811.7" gradientUnits="userSpaceOnUse">
<stop stop-color="#6E82C0"/>
<stop offset="1" stop-color="#4B77BB"/>
</linearGradient>
<linearGradient id="paint11_linear_89_978" x1="71002" y1="55739.7" x2="77409.3" y2="60811.9" gradientUnits="userSpaceOnUse">
<stop stop-color="#6E82C0"/>
<stop offset="1" stop-color="#4B77BB"/>
</linearGradient>
<linearGradient id="paint12_linear_89_978" x1="52893.3" y1="33165.1" x2="53931.5" y2="36775.5" gradientUnits="userSpaceOnUse">
<stop stop-color="#6E82C0"/>
<stop offset="1" stop-color="#4B77BB"/>
</linearGradient>
<linearGradient id="paint13_linear_89_978" x1="148.243" y1="217.802" x2="57.1098" y2="255.186" gradientUnits="userSpaceOnUse">
<stop stop-color="#7CC9A7"/>
<stop offset="1" stop-color="#3CB3AB"/>
</linearGradient>
<linearGradient id="paint14_linear_89_978" x1="29041.6" y1="42742.6" x2="24521.6" y2="51507.7" gradientUnits="userSpaceOnUse">
<stop stop-color="#4B35AD"/>
<stop offset="1" stop-color="#B7A7FF"/>
</linearGradient>
<linearGradient id="paint15_linear_89_978" x1="22257.1" y1="42083.5" x2="17222" y2="49659.7" gradientUnits="userSpaceOnUse">
<stop stop-color="#3820A2"/>
<stop offset="1" stop-color="#AD9DF8"/>
</linearGradient>
<linearGradient id="paint16_linear_89_978" x1="61481.3" y1="123932" x2="61481.3" y2="86693.2" gradientUnits="userSpaceOnUse">
<stop stop-color="#02164A"/>
<stop offset="1" stop-color="#220B88"/>
</linearGradient>
<linearGradient id="paint17_linear_89_978" x1="61705" y1="123932" x2="61705" y2="86692.7" gradientUnits="userSpaceOnUse">
<stop stop-color="#02164A"/>
<stop offset="1" stop-color="#220B88"/>
</linearGradient>
<linearGradient id="paint18_linear_89_978" x1="8366.08" y1="6922.85" x2="8696.17" y2="6922.85" gradientUnits="userSpaceOnUse">
<stop stop-color="#ADA9D4"/>
<stop offset="0.4" stop-color="#A9A5D1"/>
<stop offset="0.83" stop-color="#9F97C9"/>
<stop offset="1" stop-color="#9990C5"/>
</linearGradient>
</defs>
</svg>
